{"glyphs":{"0":{"ha":947,"x_min":0,"x_max":0,"o":"m 475 -22 b 879 504 725 -22 879 182 b 475 1029 879 826 725 1029 b 68 504 225 1029 68 826 b 475 -22 68 182 225 -22 z m 475 125 b 247 504 333 125 247 268 b 475 882 247 740 333 882 b 700 504 617 882 700 740 b 475 125 700 268 617 125 z "},"1":{"ha":604,"x_min":0,"x_max":0,"o":"m 42 797 l 42 617 l 315 807 l 315 0 l 489 0 l 489 1007 l 332 1007 z "},"2":{"ha":825,"x_min":0,"x_max":0,"o":"m 479 278 b 758 713 651 433 758 556 b 407 1029 758 904 611 1029 b 49 706 194 1029 68 900 l 214 706 b 407 883 232 817 303 883 b 585 711 524 883 585 801 b 361 386 585 596 471 486 l 58 113 l 58 0 l 763 0 l 763 136 l 322 136 z "},"3":{"ha":840,"x_min":0,"x_max":0,"o":"m 764 890 l 764 1007 l 63 1007 l 63 871 l 543 871 l 244 557 l 311 456 b 400 465 331 460 368 465 b 606 299 529 465 606 396 b 417 126 606 201 535 126 b 200 290 311 126 228 183 l 32 290 b 419 -21 64 93 206 -21 b 781 296 647 -21 781 121 b 474 586 781 461 663 572 z "},"4":{"ha":899,"x_min":0,"x_max":0,"o":"m 704 326 l 704 1007 l 550 1007 l 42 308 l 42 190 l 543 190 l 543 0 l 704 0 l 704 190 l 857 190 l 857 326 z m 543 757 l 543 326 l 231 326 z "},"5":{"ha":882,"x_min":0,"x_max":0,"o":"m 463 667 b 263 617 382 667 315 650 l 301 871 l 776 871 l 776 1007 l 165 1007 l 86 478 l 218 431 b 433 524 271 490 339 524 b 647 326 568 524 647 443 b 438 128 647 208 568 128 b 218 276 325 128 242 183 l 47 276 b 436 -18 92 72 247 -18 b 822 331 665 -18 822 118 b 463 667 822 533 681 667 z "},"6":{"ha":914,"x_min":0,"x_max":0,"o":"m 503 671 b 232 554 386 671 292 628 b 485 889 246 768 333 889 b 678 754 581 889 644 840 l 839 754 b 489 1029 794 926 679 1029 b 68 482 221 1029 68 817 b 479 -22 68 163 218 -22 b 861 325 700 -22 861 117 b 503 671 861 533 708 671 z m 476 118 b 261 329 344 118 261 207 b 478 536 261 454 349 536 b 690 329 607 536 690 451 b 476 118 690 207 608 118 z "},"7":{"ha":793,"x_min":0,"x_max":0,"o":"m 42 871 l 561 871 l 132 0 l 319 0 l 751 889 l 751 1007 l 42 1007 z "},"8":{"ha":917,"x_min":0,"x_max":0,"o":"m 665 524 b 819 756 764 569 819 651 b 458 1029 819 922 676 1029 b 97 756 242 1029 97 922 b 251 524 97 651 154 569 b 61 274 129 481 61 393 b 458 -21 61 90 213 -21 b 856 274 701 -21 856 89 b 665 524 856 393 789 481 z m 458 896 b 664 743 588 896 664 835 b 458 582 664 646 583 582 b 254 742 338 582 254 642 b 458 896 254 833 328 896 z m 458 113 b 235 281 321 113 235 178 b 458 453 235 388 321 453 b 682 281 596 453 682 388 b 458 113 682 178 596 113 z "},"9":{"ha":914,"x_min":0,"x_max":0,"o":"m 436 1029 b 54 682 215 1029 54 890 b 413 336 54 474 207 336 b 682 451 528 336 622 378 b 429 118 668 239 582 118 b 236 253 333 118 269 167 l 75 253 b 426 -22 121 81 236 -22 b 847 525 694 -22 847 190 b 436 1029 847 844 696 1029 z m 438 471 b 224 678 308 471 224 556 b 438 889 224 800 307 889 b 653 678 571 889 653 800 b 438 471 653 553 567 471 z "}," ":{"ha":279,"x_min":0,"x_max":0,"o":""},"A":{"ha":1025,"x_min":0,"x_max":0,"o":"m 1007 0 l 597 1007 l 426 1007 l 18 0 l 194 0 l 294 256 l 728 256 l 828 0 z m 510 807 l 669 401 l 351 401 z "},"Á":{"ha":1025,"x_min":0,"x_max":0,"o":"m 567 1322 l 432 1101 l 572 1101 l 771 1322 z m 1007 0 l 597 1007 l 426 1007 l 18 0 l 194 0 l 294 256 l 728 256 l 828 0 z m 510 807 l 669 401 l 351 401 z "},"Ă":{"ha":1025,"x_min":0,"x_max":0,"o":"m 511 1100 b 747 1313 658 1100 744 1175 l 611 1313 b 513 1211 608 1243 574 1211 b 411 1313 451 1211 415 1243 l 278 1313 b 511 1100 281 1175 375 1100 z m 1007 0 l 597 1007 l 426 1007 l 18 0 l 194 0 l 294 256 l 728 256 l 828 0 z m 510 807 l 669 401 l 351 401 z "},"Ǎ":{"ha":1025,"x_min":0,"x_max":0,"o":"m 774 1322 l 615 1322 l 513 1213 l 407 1322 l 250 1322 l 442 1101 l 583 1101 z m 1007 0 l 597 1007 l 426 1007 l 18 0 l 194 0 l 294 256 l 728 256 l 828 0 z m 510 807 l 669 401 l 351 401 z "},"Â":{"ha":1025,"x_min":0,"x_max":0,"o":"m 615 1101 l 774 1101 l 583 1322 l 442 1322 l 250 1101 l 407 1101 l 513 1211 z m 1007 0 l 597 1007 l 426 1007 l 18 0 l 194 0 l 294 256 l 728 256 l 828 0 z m 510 807 l 669 401 l 351 401 z "},"Ä":{"ha":1025,"x_min":0,"x_max":0,"o":"m 326 1104 b 425 1200 379 1104 425 1146 b 326 1296 425 1254 382 1296 b 228 1200 271 1296 228 1254 b 326 1104 228 1146 271 1104 z m 697 1104 b 796 1200 750 1104 796 1146 b 697 1296 796 1254 753 1296 b 599 1200 642 1296 599 1254 b 697 1104 599 1146 642 1104 z m 1007 0 l 597 1007 l 426 1007 l 18 0 l 194 0 l 294 256 l 728 256 l 828 0 z m 510 807 l 669 401 l 351 401 z "},"À":{"ha":1025,"x_min":0,"x_max":0,"o":"m 458 1322 l 254 1322 l 450 1101 l 590 1101 z m 1007 0 l 597 1007 l 426 1007 l 18 0 l 194 0 l 294 256 l 728 256 l 828 0 z m 510 807 l 669 401 l 351 401 z "},"Ā":{"ha":1025,"x_min":0,"x_max":0,"o":"m 271 1242 l 271 1119 l 754 1119 l 754 1242 z m 1007 0 l 597 1007 l 426 1007 l 18 0 l 194 0 l 294 256 l 728 256 l 828 0 z m 510 807 l 669 401 l 351 401 z "},"Ą":{"ha":1025,"x_min":0,"x_max":0,"o":"m 1007 0 l 597 1007 l 426 1007 l 18 0 l 194 0 l 294 256 l 728 256 l 828 1 b 736 -160 771 -46 736 -100 b 885 -283 736 -233 789 -283 b 963 -276 910 -283 938 -282 l 963 -178 l 944 -178 b 875 -129 900 -178 875 -162 b 963 0 875 -82 906 -33 z m 510 807 l 669 401 l 351 401 z "},"Å":{"ha":1025,"x_min":0,"x_max":0,"o":"m 511 1094 b 674 1251 606 1094 674 1158 b 511 1408 674 1343 606 1408 b 349 1251 417 1408 349 1343 b 511 1094 349 1158 417 1094 z m 511 1324 b 582 1251 553 1324 582 1293 b 511 1178 582 1208 553 1178 b 439 1251 469 1178 439 1208 b 511 1324 439 1293 469 1324 z m 1007 0 l 597 1007 l 426 1007 l 18 0 l 194 0 l 294 256 l 728 256 l 828 0 z m 510 807 l 669 401 l 351 401 z "},"Ã":{"ha":1025,"x_min":0,"x_max":0,"o":"m 421 1196 b 625 1104 490 1196 503 1104 b 792 1306 732 1104 792 1171 l 664 1306 b 604 1224 663 1251 646 1224 b 400 1314 533 1224 521 1314 b 233 1113 293 1314 233 1247 l 361 1113 b 421 1196 363 1168 379 1196 z m 1007 0 l 597 1007 l 426 1007 l 18 0 l 194 0 l 294 256 l 728 256 l 828 0 z m 510 807 l 669 401 l 351 401 z "},"Æ":{"ha":1467,"x_min":0,"x_max":0,"o":"m 869 439 l 1319 439 l 1319 586 l 869 586 l 869 860 l 1378 860 l 1378 1007 l 617 1007 l 18 0 l 207 0 l 356 256 l 696 256 l 696 0 l 1383 0 l 1383 147 l 869 147 z m 696 844 l 696 401 l 439 401 z "},"B":{"ha":939,"x_min":0,"x_max":0,"o":"m 700 525 b 839 740 788 565 839 639 b 525 1007 839 900 711 1007 l 115 1007 l 115 0 l 556 0 b 878 274 749 0 878 107 b 700 525 878 397 810 486 z m 661 724 b 507 585 661 642 604 585 l 289 585 l 289 864 l 507 864 b 661 724 604 864 661 803 z m 289 143 l 289 446 l 539 446 b 700 294 639 446 700 383 b 539 143 700 201 639 143 z "},"C":{"ha":1086,"x_min":0,"x_max":0,"o":"m 568 -22 b 1029 313 803 -22 976 110 l 853 313 b 568 125 806 197 704 125 b 240 503 371 125 240 279 b 568 882 240 719 363 882 b 854 692 706 882 808 810 l 1029 692 b 567 1029 978 896 803 1029 b 61 503 268 1029 61 806 b 568 -22 61 197 271 -22 z "},"Ć":{"ha":1086,"x_min":0,"x_max":0,"o":"m 626 1101 l 825 1322 l 621 1322 l 486 1101 z m 568 -22 b 1029 313 803 -22 976 110 l 853 313 b 568 125 806 197 704 125 b 240 503 371 125 240 279 b 568 882 240 719 363 882 b 854 692 706 882 808 810 l 1029 692 b 567 1029 978 896 803 1029 b 61 503 268 1029 61 806 b 568 -22 61 197 271 -22 z "},"Č":{"ha":1086,"x_min":0,"x_max":0,"o":"m 828 1322 l 669 1322 l 567 1213 l 461 1322 l 304 1322 l 496 1101 l 638 1101 z m 568 125 b 240 503 371 125 240 279 b 568 882 240 719 363 882 b 854 692 706 882 808 810 l 1029 692 b 567 1029 978 896 803 1029 b 61 503 268 1029 61 806 b 568 -22 61 197 271 -22 b 1029 313 803 -22 976 110 l 853 313 b 568 125 806 197 704 125 z "},"Ç":{"ha":1086,"x_min":0,"x_max":0,"o":"m 568 125 b 240 503 371 125 240 279 b 568 882 240 719 363 882 b 854 692 706 882 808 810 l 1029 692 b 567 1029 978 896 803 1029 b 61 503 268 1029 61 806 b 490 -17 61 225 235 18 l 446 -82 l 474 -133 l 508 -133 b 556 -165 544 -133 556 -144 b 493 -194 556 -186 533 -194 b 426 -190 471 -194 454 -193 l 426 -276 b 513 -282 458 -282 485 -282 b 678 -172 631 -282 678 -242 b 551 -74 678 -111 628 -74 l 589 -22 b 1029 313 813 -14 978 115 l 853 313 b 568 125 806 197 704 125 z "},"Ĉ":{"ha":1086,"x_min":0,"x_max":0,"o":"m 669 1101 l 828 1101 l 638 1322 l 496 1322 l 304 1101 l 461 1101 l 567 1211 z m 568 125 b 240 503 371 125 240 279 b 568 882 240 719 363 882 b 854 692 706 882 808 810 l 1029 692 b 567 1029 978 896 803 1029 b 61 503 268 1029 61 806 b 568 -22 61 197 271 -22 b 1029 313 803 -22 976 110 l 853 313 b 568 125 806 197 704 125 z "},"Ċ":{"ha":1086,"x_min":0,"x_max":0,"o":"m 567 1106 b 674 1210 625 1106 674 1150 b 567 1315 674 1271 626 1315 b 457 1210 504 1315 457 1271 b 567 1106 457 1150 504 1106 z m 568 -22 b 1029 313 803 -22 976 110 l 853 313 b 568 125 806 197 704 125 b 240 503 371 125 240 279 b 568 882 240 719 363 882 b 854 692 706 882 808 810 l 1029 692 b 567 1029 978 896 803 1029 b 61 503 268 1029 61 806 b 568 -22 61 197 271 -22 z "},"D":{"ha":1015,"x_min":0,"x_max":0,"o":"m 115 1007 l 115 0 l 450 0 b 956 504 746 0 956 208 b 450 1007 956 799 746 1007 z m 289 147 l 289 860 l 446 860 b 776 504 639 860 776 710 b 446 147 776 297 639 147 z "},"Ð":{"ha":1015,"x_min":0,"x_max":0,"o":"m 115 1007 l 115 575 l 6 575 l 6 432 l 115 432 l 115 0 l 450 0 b 956 504 746 0 956 208 b 450 1007 956 799 746 1007 z m 289 147 l 289 432 l 525 432 l 525 575 l 289 575 l 289 860 l 446 860 b 776 504 639 860 776 710 b 446 147 776 297 639 147 z "},"Ď":{"ha":1015,"x_min":0,"x_max":0,"o":"m 756 1322 l 597 1322 l 494 1213 l 389 1322 l 232 1322 l 424 1101 l 565 1101 z m 115 1007 l 115 0 l 450 0 b 956 504 746 0 956 208 b 450 1007 956 799 746 1007 z m 289 147 l 289 860 l 446 860 b 776 504 639 860 776 710 b 446 147 776 297 639 147 z "},"Đ":{"ha":1015,"x_min":0,"x_max":0,"o":"m 115 1007 l 115 576 l 6 576 l 6 432 l 115 432 l 115 0 l 450 0 b 956 504 746 0 956 208 b 450 1007 956 799 746 1007 z m 289 147 l 289 432 l 525 432 l 525 576 l 289 576 l 289 860 l 446 860 b 776 504 639 860 776 710 b 446 147 776 297 639 147 z "},"E":{"ha":886,"x_min":0,"x_max":0,"o":"m 289 439 l 739 439 l 739 586 l 289 586 l 289 860 l 797 860 l 797 1007 l 115 1007 l 115 0 l 803 0 l 803 147 l 289 147 z "},"É":{"ha":886,"x_min":0,"x_max":0,"o":"m 511 1322 l 376 1101 l 517 1101 l 715 1322 z m 289 439 l 739 439 l 739 586 l 289 586 l 289 860 l 797 860 l 797 1007 l 115 1007 l 115 0 l 803 0 l 803 147 l 289 147 z "},"Ĕ":{"ha":886,"x_min":0,"x_max":0,"o":"m 454 1100 b 690 1313 601 1100 688 1175 l 554 1313 b 456 1211 551 1243 517 1211 b 354 1313 394 1211 358 1243 l 221 1313 b 454 1100 224 1175 318 1100 z m 289 439 l 739 439 l 739 586 l 289 586 l 289 860 l 797 860 l 797 1007 l 115 1007 l 115 0 l 803 0 l 803 147 l 289 147 z "},"Ě":{"ha":886,"x_min":0,"x_max":0,"o":"m 717 1322 l 558 1322 l 456 1213 l 350 1322 l 193 1322 l 385 1101 l 526 1101 z m 289 439 l 739 439 l 739 586 l 289 586 l 289 860 l 797 860 l 797 1007 l 115 1007 l 115 0 l 803 0 l 803 147 l 289 147 z "},"Ê":{"ha":886,"x_min":0,"x_max":0,"o":"m 558 1101 l 717 1101 l 526 1322 l 385 1322 l 193 1101 l 350 1101 l 456 1211 z m 289 439 l 739 439 l 739 586 l 289 586 l 289 860 l 797 860 l 797 1007 l 115 1007 l 115 0 l 803 0 l 803 147 l 289 147 z "},"Ë":{"ha":886,"x_min":0,"x_max":0,"o":"m 269 1104 b 368 1200 322 1104 368 1146 b 269 1296 368 1254 325 1296 b 171 1200 214 1296 171 1254 b 269 1104 171 1146 214 1104 z m 640 1104 b 739 1200 693 1104 739 1146 b 640 1296 739 1254 696 1296 b 542 1200 585 1296 542 1254 b 640 1104 542 1146 585 1104 z m 289 439 l 739 439 l 739 586 l 289 586 l 289 860 l 797 860 l 797 1007 l 115 1007 l 115 0 l 803 0 l 803 147 l 289 147 z "},"Ė":{"ha":886,"x_min":0,"x_max":0,"o":"m 457 1106 b 564 1210 515 1106 564 1150 b 457 1315 564 1271 517 1315 b 347 1210 394 1315 347 1271 b 457 1106 347 1150 394 1106 z m 289 439 l 739 439 l 739 586 l 289 586 l 289 860 l 797 860 l 797 1007 l 115 1007 l 115 0 l 803 0 l 803 147 l 289 147 z "},"È":{"ha":886,"x_min":0,"x_max":0,"o":"m 401 1322 l 197 1322 l 393 1101 l 533 1101 z m 289 439 l 739 439 l 739 586 l 289 586 l 289 860 l 797 860 l 797 1007 l 115 1007 l 115 0 l 803 0 l 803 147 l 289 147 z "},"Ē":{"ha":886,"x_min":0,"x_max":0,"o":"m 214 1242 l 214 1119 l 697 1119 l 697 1242 z m 289 439 l 739 439 l 739 586 l 289 586 l 289 860 l 797 860 l 797 1007 l 115 1007 l 115 0 l 803 0 l 803 147 l 289 147 z "},"Ę":{"ha":886,"x_min":0,"x_max":0,"o":"m 289 439 l 739 439 l 739 586 l 289 586 l 289 860 l 797 860 l 797 1007 l 115 1007 l 115 0 l 665 0 b 575 -160 610 -46 575 -101 b 724 -283 575 -233 628 -283 b 801 -276 749 -283 776 -282 l 801 -178 l 783 -178 b 714 -129 739 -178 714 -162 b 801 0 714 -82 744 -33 l 803 0 l 803 147 l 289 147 z "},"Ẽ":{"ha":886,"x_min":0,"x_max":0,"o":"m 364 1196 b 568 1104 433 1196 446 1104 b 735 1306 675 1104 735 1171 l 607 1306 b 547 1224 606 1251 589 1224 b 343 1314 476 1224 464 1314 b 176 1113 236 1314 176 1247 l 304 1113 b 364 1196 306 1168 322 1196 z m 289 439 l 739 439 l 739 586 l 289 586 l 289 860 l 797 860 l 797 1007 l 115 1007 l 115 0 l 803 0 l 803 147 l 289 147 z "},"F":{"ha":850,"x_min":0,"x_max":0,"o":"m 778 1007 l 115 1007 l 115 0 l 289 0 l 289 429 l 717 429 l 717 575 l 289 575 l 289 860 l 778 860 z "},"Ƒ":{"ha":783,"x_min":0,"x_max":0,"o":"m 758 868 l 758 1007 l 596 1007 b 368 835 465 1007 390 956 l 340 671 l 168 671 l 168 535 l 317 535 l 219 -29 b 113 -111 208 -85 178 -111 l -12 -111 l -12 -250 l 153 -250 b 376 -78 281 -250 356 -199 l 483 535 l 718 535 l 718 671 l 507 671 l 526 786 b 633 868 536 842 568 868 z "},"G":{"ha":1131,"x_min":0,"x_max":0,"o":"m 539 390 l 876 390 b 569 125 860 228 739 125 b 239 503 365 125 239 282 b 568 882 239 721 363 882 b 840 724 693 882 789 822 l 1021 724 b 568 1029 958 910 790 1029 b 61 503 267 1029 61 806 b 549 -22 61 188 278 -22 b 872 129 711 -22 813 49 l 872 0 l 1029 0 l 1029 533 l 539 533 z "},"Ğ":{"ha":1131,"x_min":0,"x_max":0,"o":"m 568 1100 b 804 1313 715 1100 801 1175 l 668 1313 b 569 1211 665 1243 631 1211 b 468 1313 508 1211 472 1243 l 335 1313 b 568 1100 338 1175 432 1100 z m 539 390 l 876 390 b 569 125 860 228 739 125 b 239 503 365 125 239 282 b 568 882 239 721 363 882 b 840 724 693 882 789 822 l 1021 724 b 568 1029 958 910 790 1029 b 61 503 267 1029 61 806 b 549 -22 61 188 278 -22 b 872 129 711 -22 813 49 l 872 0 l 1029 0 l 1029 533 l 539 533 z "},"Ǧ":{"ha":1131,"x_min":0,"x_max":0,"o":"m 831 1322 l 672 1322 l 569 1213 l 464 1322 l 307 1322 l 499 1101 l 640 1101 z m 539 390 l 876 390 b 569 125 860 228 739 125 b 239 503 365 125 239 282 b 568 882 239 721 363 882 b 840 724 693 882 789 822 l 1021 724 b 568 1029 958 910 790 1029 b 61 503 267 1029 61 806 b 549 -22 61 188 278 -22 b 872 129 711 -22 813 49 l 872 0 l 1029 0 l 1029 533 l 539 533 z "},"Ĝ":{"ha":1131,"x_min":0,"x_max":0,"o":"m 672 1101 l 831 1101 l 640 1322 l 499 1322 l 307 1101 l 464 1101 l 569 1211 z m 539 390 l 876 390 b 569 125 860 228 739 125 b 239 503 365 125 239 282 b 568 882 239 721 363 882 b 840 724 693 882 789 822 l 1021 724 b 568 1029 958 910 790 1029 b 61 503 267 1029 61 806 b 549 -22 61 188 278 -22 b 872 129 711 -22 813 49 l 872 0 l 1029 0 l 1029 533 l 539 533 z "},"Ģ":{"ha":1131,"x_min":0,"x_max":0,"o":"m 539 390 l 876 390 b 569 125 860 228 739 125 b 239 503 365 125 239 282 b 568 882 239 721 363 882 b 840 724 693 882 789 822 l 1021 724 b 568 1029 958 910 790 1029 b 61 503 267 1029 61 806 b 549 -22 61 188 278 -22 b 872 129 711 -22 813 49 l 872 0 l 1029 0 l 1029 533 l 539 533 z m 575 -294 l 649 -83 l 490 -83 l 454 -294 z "},"Ġ":{"ha":1131,"x_min":0,"x_max":0,"o":"m 569 1106 b 676 1210 628 1106 676 1150 b 569 1315 676 1271 629 1315 b 460 1210 507 1315 460 1271 b 569 1106 460 1150 507 1106 z m 539 390 l 876 390 b 569 125 860 228 739 125 b 239 503 365 125 239 282 b 568 882 239 721 363 882 b 840 724 693 882 789 822 l 1021 724 b 568 1029 958 910 790 1029 b 61 503 267 1029 61 806 b 549 -22 61 188 278 -22 b 872 129 711 -22 813 49 l 872 0 l 1029 0 l 1029 533 l 539 533 z "},"H":{"ha":1039,"x_min":0,"x_max":0,"o":"m 749 586 l 289 586 l 289 1007 l 115 1007 l 115 0 l 289 0 l 289 439 l 749 439 l 749 0 l 924 0 l 924 1007 l 749 1007 z "},"Ħ":{"ha":1039,"x_min":0,"x_max":0,"o":"m 924 868 l 924 1007 l 749 1007 l 749 868 l 289 868 l 289 1007 l 115 1007 l 115 868 l 15 868 l 15 725 l 115 725 l 115 0 l 289 0 l 289 439 l 749 439 l 749 0 l 924 0 l 924 725 l 1024 725 l 1024 868 z m 289 586 l 289 725 l 749 725 l 749 586 z "},"Ĥ":{"ha":1039,"x_min":0,"x_max":0,"o":"m 622 1101 l 781 1101 l 590 1322 l 449 1322 l 257 1101 l 414 1101 l 519 1211 z m 749 586 l 289 586 l 289 1007 l 115 1007 l 115 0 l 289 0 l 289 439 l 749 439 l 749 0 l 924 0 l 924 1007 l 749 1007 z "},"I":{"ha":404,"x_min":0,"x_max":0,"o":"m 289 0 l 289 1007 l 115 1007 l 115 0 z "},"Ĳ":{"ha":957,"x_min":0,"x_max":0,"o":"m 289 0 l 289 1007 l 115 1007 l 115 0 z m 600 0 b 849 253 821 0 849 135 l 849 1007 l 675 1007 l 675 263 b 565 147 675 178 647 147 l 436 147 l 436 0 z "},"Í":{"ha":404,"x_min":0,"x_max":0,"o":"m 263 1101 l 461 1322 l 257 1322 l 122 1101 z m 289 0 l 289 1007 l 115 1007 l 115 0 z "},"Ĭ":{"ha":404,"x_min":0,"x_max":0,"o":"m 201 1100 b 438 1313 349 1100 435 1175 l 301 1313 b 203 1211 299 1243 264 1211 b 101 1313 142 1211 106 1243 l -32 1313 b 201 1100 -29 1175 65 1100 z m 289 0 l 289 1007 l 115 1007 l 115 0 z "},"Ǐ":{"ha":404,"x_min":0,"x_max":0,"o":"m 464 1322 l 306 1322 l 203 1213 l 97 1322 l -60 1322 l 132 1101 l 274 1101 z m 289 0 l 289 1007 l 115 1007 l 115 0 z "},"Î":{"ha":404,"x_min":0,"x_max":0,"o":"m 132 1322 l -60 1101 l 97 1101 l 203 1211 l 306 1101 l 464 1101 l 274 1322 z m 289 0 l 289 1007 l 115 1007 l 115 0 z "},"Ï":{"ha":404,"x_min":0,"x_max":0,"o":"m 17 1104 b 115 1200 69 1104 115 1146 b 17 1296 115 1254 72 1296 b -82 1200 -39 1296 -82 1254 b 17 1104 -82 1146 -39 1104 z m 388 1104 b 486 1200 440 1104 486 1146 b 388 1296 486 1254 443 1296 b 289 1200 332 1296 289 1254 b 388 1104 289 1146 332 1104 z m 289 0 l 289 1007 l 115 1007 l 115 0 z "},"İ":{"ha":404,"x_min":0,"x_max":0,"o":"m 203 1106 b 310 1210 261 1106 310 1150 b 203 1315 310 1271 263 1315 b 93 1210 140 1315 93 1271 b 203 1106 93 1150 140 1106 z m 289 0 l 289 1007 l 115 1007 l 115 0 z "},"Ị":{"ha":404,"x_min":0,"x_max":0,"o":"m 289 0 l 289 1007 l 115 1007 l 115 0 z m 203 -319 b 310 -215 261 -319 310 -275 b 203 -111 310 -156 263 -111 b 93 -215 140 -111 93 -156 b 203 -319 93 -275 140 -319 z "},"Ì":{"ha":404,"x_min":0,"x_max":0,"o":"m 281 1101 l 149 1322 l -56 1322 l 140 1101 z m 289 0 l 289 1007 l 115 1007 l 115 0 z "},"Ī":{"ha":404,"x_min":0,"x_max":0,"o":"m 444 1119 l 444 1242 l -39 1242 l -39 1119 z m 289 0 l 289 1007 l 115 1007 l 115 0 z "},"Į":{"ha":404,"x_min":0,"x_max":0,"o":"m 289 1007 l 115 1007 l 115 0 l 153 0 b 63 -160 97 -46 63 -101 b 211 -283 63 -233 115 -283 b 289 -276 236 -283 264 -282 l 289 -178 l 271 -178 b 201 -129 226 -178 201 -162 b 289 0 201 -82 232 -33 z "},"Ĩ":{"ha":404,"x_min":0,"x_max":0,"o":"m 315 1104 b 482 1306 422 1104 482 1171 l 354 1306 b 294 1224 353 1251 336 1224 b 90 1314 224 1224 211 1314 b -76 1113 -17 1314 -76 1247 l 51 1113 b 111 1196 53 1168 69 1196 b 315 1104 181 1196 193 1104 z m 289 0 l 289 1007 l 115 1007 l 115 0 z "},"J":{"ha":553,"x_min":0,"x_max":0,"o":"m 196 0 b 444 253 417 0 444 135 l 444 1007 l 271 1007 l 271 263 b 161 147 271 178 243 147 l 32 147 l 32 0 z "},"Ĵ":{"ha":553,"x_min":0,"x_max":0,"o":"m 288 1322 l 96 1101 l 253 1101 l 358 1211 l 461 1101 l 619 1101 l 429 1322 z m 271 263 b 161 147 271 178 243 147 l 32 147 l 32 0 l 196 0 b 444 253 417 0 444 135 l 444 1007 l 271 1007 z "},"K":{"ha":958,"x_min":0,"x_max":0,"o":"m 938 0 l 526 579 l 908 1007 l 710 1007 l 289 532 l 289 1007 l 115 1007 l 115 0 l 289 0 l 289 315 l 413 453 l 732 0 z "},"Ķ":{"ha":958,"x_min":0,"x_max":0,"o":"m 908 1007 l 710 1007 l 289 532 l 289 1007 l 115 1007 l 115 0 l 289 0 l 289 315 l 413 453 l 732 0 l 938 0 l 526 579 z m 497 -294 l 571 -83 l 413 -83 l 376 -294 z "},"L":{"ha":828,"x_min":0,"x_max":0,"o":"m 289 1007 l 115 1007 l 115 0 l 769 0 l 769 147 l 289 147 z "},"Ĺ":{"ha":828,"x_min":0,"x_max":0,"o":"m 257 1322 l 122 1101 l 263 1101 l 461 1322 z m 289 1007 l 115 1007 l 115 0 l 769 0 l 769 147 l 289 147 z "},"Ľ":{"ha":828,"x_min":0,"x_max":0,"o":"m 289 1007 l 115 1007 l 115 0 l 769 0 l 769 147 l 289 147 z m 383 1007 l 374 685 l 485 685 l 532 1007 z "},"Ļ":{"ha":828,"x_min":0,"x_max":0,"o":"m 289 1007 l 115 1007 l 115 0 l 769 0 l 769 147 l 289 147 z m 432 -294 l 506 -83 l 347 -83 l 311 -294 z "},"Ł":{"ha":828,"x_min":0,"x_max":0,"o":"m 289 367 l 549 519 l 549 689 l 289 536 l 289 1007 l 115 1007 l 115 450 l 26 396 l 26 228 l 115 282 l 115 0 l 769 0 l 769 147 l 289 147 z "},"M":{"ha":1264,"x_min":0,"x_max":0,"o":"m 636 407 l 278 1007 l 115 1007 l 115 0 l 282 0 l 282 714 l 585 204 l 690 204 l 982 710 l 982 0 l 1149 0 l 1149 1007 l 985 1007 z "},"N":{"ha":1042,"x_min":0,"x_max":0,"o":"m 765 288 l 264 1007 l 115 1007 l 115 0 l 276 0 l 276 722 l 778 0 l 926 0 l 926 1007 l 765 1007 z "},"Ń":{"ha":1042,"x_min":0,"x_max":0,"o":"m 575 1322 l 440 1101 l 581 1101 l 779 1322 z m 765 288 l 264 1007 l 115 1007 l 115 0 l 276 0 l 276 722 l 778 0 l 926 0 l 926 1007 l 765 1007 z "},"Ň":{"ha":1042,"x_min":0,"x_max":0,"o":"m 782 1322 l 624 1322 l 521 1213 l 415 1322 l 258 1322 l 450 1101 l 592 1101 z m 765 288 l 264 1007 l 115 1007 l 115 0 l 276 0 l 276 722 l 778 0 l 926 0 l 926 1007 l 765 1007 z "},"Ņ":{"ha":1042,"x_min":0,"x_max":0,"o":"m 765 288 l 264 1007 l 115 1007 l 115 0 l 276 0 l 276 722 l 778 0 l 926 0 l 926 1007 l 765 1007 z m 526 -294 l 600 -83 l 442 -83 l 406 -294 z "},"Ñ":{"ha":1042,"x_min":0,"x_max":0,"o":"m 429 1196 b 633 1104 499 1196 511 1104 b 800 1306 740 1104 800 1171 l 672 1306 b 613 1224 671 1251 654 1224 b 408 1314 542 1224 529 1314 b 242 1113 301 1314 242 1247 l 369 1113 b 429 1196 371 1168 388 1196 z m 765 288 l 264 1007 l 115 1007 l 115 0 l 276 0 l 276 722 l 778 0 l 926 0 l 926 1007 l 765 1007 z "},"O":{"ha":1157,"x_min":0,"x_max":0,"o":"m 579 -22 b 1096 504 882 -22 1096 197 b 579 1029 1096 811 882 1029 b 61 504 276 1029 61 811 b 579 -22 61 197 276 -22 z m 579 125 b 240 504 376 125 240 279 b 579 882 240 729 376 882 b 917 504 781 882 917 729 b 579 125 917 279 781 125 z "},"Ó":{"ha":1157,"x_min":0,"x_max":0,"o":"m 639 1101 l 838 1322 l 633 1322 l 499 1101 z m 579 -22 b 1096 504 882 -22 1096 197 b 579 1029 1096 811 882 1029 b 61 504 276 1029 61 811 b 579 -22 61 197 276 -22 z m 579 125 b 240 504 376 125 240 279 b 579 882 240 729 376 882 b 917 504 781 882 917 729 b 579 125 917 279 781 125 z "},"Ŏ":{"ha":1157,"x_min":0,"x_max":0,"o":"m 576 1100 b 813 1313 724 1100 810 1175 l 676 1313 b 578 1211 674 1243 639 1211 b 476 1313 517 1211 481 1243 l 343 1313 b 576 1100 346 1175 440 1100 z m 579 -22 b 1096 504 882 -22 1096 197 b 579 1029 1096 811 882 1029 b 61 504 276 1029 61 811 b 579 -22 61 197 276 -22 z m 579 125 b 240 504 376 125 240 279 b 579 882 240 729 376 882 b 917 504 781 882 917 729 b 579 125 917 279 781 125 z "},"Ǒ":{"ha":1157,"x_min":0,"x_max":0,"o":"m 839 1322 l 681 1322 l 578 1213 l 472 1322 l 315 1322 l 507 1101 l 649 1101 z m 579 1029 b 61 504 276 1029 61 811 b 579 -22 61 197 276 -22 b 1096 504 882 -22 1096 197 b 579 1029 1096 811 882 1029 z m 579 125 b 240 504 376 125 240 279 b 579 882 240 729 376 882 b 917 504 781 882 917 729 b 579 125 917 279 781 125 z "},"Ô":{"ha":1157,"x_min":0,"x_max":0,"o":"m 681 1101 l 839 1101 l 649 1322 l 507 1322 l 315 1101 l 472 1101 l 578 1211 z m 579 1029 b 61 504 276 1029 61 811 b 579 -22 61 197 276 -22 b 1096 504 882 -22 1096 197 b 579 1029 1096 811 882 1029 z m 579 125 b 240 504 376 125 240 279 b 579 882 240 729 376 882 b 917 504 781 882 917 729 b 579 125 917 279 781 125 z "},"Ö":{"ha":1157,"x_min":0,"x_max":0,"o":"m 392 1104 b 490 1200 444 1104 490 1146 b 392 1296 490 1254 447 1296 b 293 1200 336 1296 293 1254 b 392 1104 293 1146 336 1104 z m 763 1104 b 861 1200 815 1104 861 1146 b 763 1296 861 1254 818 1296 b 664 1200 707 1296 664 1254 b 763 1104 664 1146 707 1104 z m 579 -22 b 1096 504 882 -22 1096 197 b 579 1029 1096 811 882 1029 b 61 504 276 1029 61 811 b 579 -22 61 197 276 -22 z m 579 125 b 240 504 376 125 240 279 b 579 882 240 729 376 882 b 917 504 781 882 917 729 b 579 125 917 279 781 125 z "},"Ọ":{"ha":1157,"x_min":0,"x_max":0,"o":"m 579 -22 b 1096 504 882 -22 1096 197 b 579 1029 1096 811 882 1029 b 61 504 276 1029 61 811 b 579 -22 61 197 276 -22 z m 579 125 b 240 504 376 125 240 279 b 579 882 240 729 376 882 b 917 504 781 882 917 729 b 579 125 917 279 781 125 z m 579 -319 b 686 -215 638 -319 686 -275 b 579 -111 686 -156 639 -111 b 469 -215 517 -111 469 -156 b 579 -319 469 -275 517 -319 z "},"Ò":{"ha":1157,"x_min":0,"x_max":0,"o":"m 656 1101 l 524 1322 l 319 1322 l 515 1101 z m 579 -22 b 1096 504 882 -22 1096 197 b 579 1029 1096 811 882 1029 b 61 504 276 1029 61 811 b 579 -22 61 197 276 -22 z m 579 125 b 240 504 376 125 240 279 b 579 882 240 729 376 882 b 917 504 781 882 917 729 b 579 125 917 279 781 125 z "},"Ő":{"ha":1157,"x_min":0,"x_max":0,"o":"m 513 1101 l 636 1322 l 471 1322 l 389 1101 z m 767 1101 l 907 1322 l 742 1322 l 643 1101 z m 579 -22 b 1096 504 882 -22 1096 197 b 579 1029 1096 811 882 1029 b 61 504 276 1029 61 811 b 579 -22 61 197 276 -22 z m 579 125 b 240 504 376 125 240 279 b 579 882 240 729 376 882 b 917 504 781 882 917 729 b 579 125 917 279 781 125 z "},"Ō":{"ha":1157,"x_min":0,"x_max":0,"o":"m 819 1119 l 819 1242 l 336 1242 l 336 1119 z m 579 -22 b 1096 504 882 -22 1096 197 b 579 1029 1096 811 882 1029 b 61 504 276 1029 61 811 b 579 -22 61 197 276 -22 z m 579 125 b 240 504 376 125 240 279 b 579 882 240 729 376 882 b 917 504 781 882 917 729 b 579 125 917 279 781 125 z "},"Ø":{"ha":1157,"x_min":0,"x_max":0,"o":"m 936 1007 l 878 942 b 579 1029 796 997 694 1029 b 61 504 276 1029 61 811 b 186 147 61 363 107 239 l 54 0 l 218 0 l 278 67 b 579 -22 361 10 464 -22 b 1096 504 882 -22 1096 197 b 971 861 1096 647 1050 769 l 1100 1007 z m 579 882 b 772 824 654 882 719 861 l 301 274 b 240 504 263 336 240 414 b 579 882 240 729 376 882 z m 579 125 b 385 185 504 125 438 146 l 854 736 b 917 504 894 674 917 594 b 579 125 917 279 781 125 z "},"Õ":{"ha":1157,"x_min":0,"x_max":0,"o":"m 690 1104 b 857 1306 797 1104 857 1171 l 729 1306 b 669 1224 728 1251 711 1224 b 465 1314 599 1224 586 1314 b 299 1113 358 1314 299 1247 l 426 1113 b 486 1196 428 1168 444 1196 b 690 1104 556 1196 568 1104 z m 579 -22 b 1096 504 882 -22 1096 197 b 579 1029 1096 811 882 1029 b 61 504 276 1029 61 811 b 579 -22 61 197 276 -22 z m 579 125 b 240 504 376 125 240 279 b 579 882 240 729 376 882 b 917 504 781 882 917 729 b 579 125 917 279 781 125 z "},"Œ":{"ha":1690,"x_min":0,"x_max":0,"o":"m 1093 439 l 1543 439 l 1543 586 l 1093 586 l 1093 860 l 1601 860 l 1601 1007 l 919 1007 l 919 882 b 572 1029 835 975 714 1029 b 61 504 276 1029 61 811 b 572 -22 61 197 276 -22 b 919 125 714 -22 835 32 l 919 0 l 1607 0 l 1607 147 l 1093 147 z m 579 125 b 240 504 376 125 240 279 b 579 882 240 729 376 882 b 917 504 781 882 917 729 b 579 125 917 279 781 125 z "},"P":{"ha":921,"x_min":0,"x_max":0,"o":"m 115 1007 l 115 0 l 289 0 l 289 374 l 521 374 b 861 690 728 374 861 492 b 521 1007 861 885 728 1007 z m 289 521 l 289 860 l 513 860 b 689 690 621 860 689 792 b 513 521 689 586 621 521 z "},"Þ":{"ha":921,"x_min":0,"x_max":0,"o":"m 289 854 l 289 1007 l 115 1007 l 115 0 l 289 0 l 289 221 l 521 221 b 861 536 728 221 861 339 b 521 854 861 732 728 854 z m 289 368 l 289 707 l 513 707 b 689 536 621 707 689 639 b 513 368 689 433 621 368 z "},"Q":{"ha":1157,"x_min":0,"x_max":0,"o":"m 1096 504 b 579 1029 1096 811 882 1029 b 61 504 276 1029 61 811 b 579 -22 61 197 276 -22 b 844 44 679 -22 768 1 l 882 0 l 1063 0 l 953 128 b 1096 504 1043 221 1096 351 z m 579 125 b 240 504 376 125 240 279 b 579 882 240 729 376 882 b 917 504 781 882 917 729 b 843 254 917 404 890 319 l 714 404 l 535 404 l 740 164 b 579 125 694 139 639 125 z "},"R":{"ha":936,"x_min":0,"x_max":0,"o":"m 893 0 l 621 410 b 838 697 753 444 838 546 b 501 1007 838 885 708 1007 l 115 1007 l 115 0 l 289 0 l 289 396 l 438 396 l 697 0 z m 499 860 b 664 696 596 860 664 794 b 499 536 664 596 596 536 l 289 536 l 289 860 z "},"Ŕ":{"ha":936,"x_min":0,"x_max":0,"o":"m 524 1322 l 389 1101 l 529 1101 l 728 1322 z m 893 0 l 621 410 b 838 697 753 444 838 546 b 501 1007 838 885 708 1007 l 115 1007 l 115 0 l 289 0 l 289 396 l 438 396 l 697 0 z m 499 860 b 664 696 596 860 664 794 b 499 536 664 596 596 536 l 289 536 l 289 860 z "},"Ř":{"ha":936,"x_min":0,"x_max":0,"o":"m 729 1322 l 571 1322 l 468 1213 l 363 1322 l 206 1322 l 397 1101 l 539 1101 z m 893 0 l 621 410 b 838 697 753 444 838 546 b 501 1007 838 885 708 1007 l 115 1007 l 115 0 l 289 0 l 289 396 l 438 396 l 697 0 z m 499 860 b 664 696 596 860 664 794 b 499 536 664 596 596 536 l 289 536 l 289 860 z "},"Ŗ":{"ha":936,"x_min":0,"x_max":0,"o":"m 621 410 b 838 697 753 444 838 546 b 501 1007 838 885 708 1007 l 115 1007 l 115 0 l 289 0 l 289 396 l 438 396 l 697 0 l 893 0 z m 499 860 b 664 696 596 860 664 794 b 499 536 664 596 596 536 l 289 536 l 289 860 z m 474 -294 l 547 -83 l 389 -83 l 353 -294 z "},"S":{"ha":908,"x_min":0,"x_max":0,"o":"m 457 -21 b 849 300 696 -21 849 101 b 565 575 849 450 760 551 l 411 593 b 249 729 363 599 249 621 b 451 889 249 822 329 889 b 665 735 571 889 643 825 l 832 735 b 453 1028 800 925 656 1028 b 74 714 226 1028 74 899 b 350 440 74 553 193 460 l 503 422 b 674 279 613 408 674 361 b 464 118 674 174 582 118 b 218 296 353 118 247 167 l 46 296 b 457 -21 83 74 247 -21 z "},"Ś":{"ha":908,"x_min":0,"x_max":0,"o":"m 515 1101 l 714 1322 l 510 1322 l 375 1101 z m 457 -21 b 849 300 696 -21 849 101 b 565 575 849 450 760 551 l 411 593 b 249 729 363 599 249 621 b 451 889 249 822 329 889 b 665 735 571 889 643 825 l 832 735 b 453 1028 800 925 656 1028 b 74 714 226 1028 74 899 b 350 440 74 553 193 460 l 503 422 b 674 279 613 408 674 361 b 464 118 674 174 582 118 b 218 296 353 118 247 167 l 46 296 b 457 -21 83 74 247 -21 z "},"Š":{"ha":908,"x_min":0,"x_max":0,"o":"m 715 1322 l 557 1322 l 454 1213 l 349 1322 l 192 1322 l 383 1101 l 525 1101 z m 411 593 b 249 729 363 599 249 621 b 451 889 249 822 329 889 b 665 735 571 889 643 825 l 832 735 b 453 1028 800 925 656 1028 b 74 714 226 1028 74 899 b 350 440 74 553 193 460 l 503 422 b 674 279 613 408 674 361 b 464 118 674 174 582 118 b 218 296 353 118 247 167 l 46 296 b 457 -21 83 74 247 -21 b 849 300 696 -21 849 101 b 565 575 849 450 760 551 z "},"Ş":{"ha":908,"x_min":0,"x_max":0,"o":"m 849 300 b 565 575 849 450 760 551 l 411 593 b 249 729 363 599 249 621 b 451 889 249 822 329 889 b 665 735 571 889 643 825 l 832 735 b 453 1028 800 925 656 1028 b 74 714 226 1028 74 899 b 350 440 74 553 193 460 l 503 422 b 674 279 613 408 674 361 b 464 118 674 174 582 118 b 218 296 353 118 247 167 l 46 296 b 397 -18 79 94 217 -1 l 354 -82 l 382 -133 l 417 -133 b 464 -165 453 -133 464 -144 b 401 -194 464 -186 442 -194 b 335 -190 379 -194 363 -193 l 335 -276 b 421 -282 367 -282 393 -282 b 586 -172 539 -282 586 -242 b 460 -74 586 -111 536 -74 l 499 -19 b 849 300 714 -6 849 113 z "},"Ŝ":{"ha":908,"x_min":0,"x_max":0,"o":"m 557 1101 l 715 1101 l 525 1322 l 383 1322 l 192 1101 l 349 1101 l 454 1211 z m 411 593 b 249 729 363 599 249 621 b 451 889 249 822 329 889 b 665 735 571 889 643 825 l 832 735 b 453 1028 800 925 656 1028 b 74 714 226 1028 74 899 b 350 440 74 553 193 460 l 503 422 b 674 279 613 408 674 361 b 464 118 674 174 582 118 b 218 296 353 118 247 167 l 46 296 b 457 -21 83 74 247 -21 b 849 300 696 -21 849 101 b 565 575 849 450 760 551 z "},"Ș":{"ha":908,"x_min":0,"x_max":0,"o":"m 457 -21 b 849 300 696 -21 849 101 b 565 575 849 450 760 551 l 411 593 b 249 729 363 599 249 621 b 451 889 249 822 329 889 b 665 735 571 889 643 825 l 832 735 b 453 1028 800 925 656 1028 b 74 714 226 1028 74 899 b 350 440 74 553 193 460 l 503 422 b 674 279 613 408 674 361 b 464 118 674 174 582 118 b 218 296 353 118 247 167 l 46 296 b 457 -21 83 74 247 -21 z m 460 -294 l 533 -83 l 375 -83 l 339 -294 z "},"ẞ":{"ha":944,"x_min":0,"x_max":0,"o":"m 839 890 l 839 1007 l 115 1007 l 115 0 l 289 0 l 289 871 l 633 871 l 414 586 l 414 463 b 501 465 443 464 475 465 b 708 304 629 465 708 401 b 511 142 708 214 643 142 b 403 144 479 142 442 143 l 403 0 b 524 -6 435 -3 488 -6 b 883 297 761 -6 883 129 b 601 583 883 454 775 563 z "},"T":{"ha":876,"x_min":0,"x_max":0,"o":"m 42 1007 l 42 860 l 351 860 l 351 0 l 525 0 l 525 860 l 835 860 l 835 1007 z "},"Ť":{"ha":876,"x_min":0,"x_max":0,"o":"m 700 1322 l 542 1322 l 439 1213 l 333 1322 l 176 1322 l 368 1101 l 510 1101 z m 42 1007 l 42 860 l 351 860 l 351 0 l 525 0 l 525 860 l 835 860 l 835 1007 z "},"Ţ":{"ha":876,"x_min":0,"x_max":0,"o":"m 525 860 l 835 860 l 835 1007 l 42 1007 l 42 860 l 351 860 l 351 0 l 394 0 l 339 -82 l 367 -133 l 401 -133 b 449 -165 438 -133 449 -144 b 386 -194 449 -186 426 -194 b 319 -190 364 -194 347 -193 l 319 -276 b 406 -282 351 -282 378 -282 b 571 -172 524 -282 571 -242 b 444 -74 571 -111 521 -74 l 497 0 l 525 0 z "},"Ț":{"ha":876,"x_min":0,"x_max":0,"o":"m 42 1007 l 42 860 l 351 860 l 351 0 l 525 0 l 525 860 l 835 860 l 835 1007 z m 443 -294 l 517 -83 l 358 -83 l 322 -294 z "},"U":{"ha":993,"x_min":0,"x_max":0,"o":"m 499 -22 b 892 379 735 -22 892 114 l 892 1007 l 718 1007 l 718 381 b 499 125 718 208 629 125 b 275 381 365 125 275 208 l 275 1007 l 101 1007 l 101 379 b 499 -22 101 114 261 -22 z "},"Ú":{"ha":993,"x_min":0,"x_max":0,"o":"m 557 1101 l 756 1322 l 551 1322 l 417 1101 z m 499 -22 b 892 379 735 -22 892 114 l 892 1007 l 718 1007 l 718 381 b 499 125 718 208 629 125 b 275 381 365 125 275 208 l 275 1007 l 101 1007 l 101 379 b 499 -22 101 114 261 -22 z "},"Ŭ":{"ha":993,"x_min":0,"x_max":0,"o":"m 496 1100 b 732 1313 643 1100 729 1175 l 596 1313 b 497 1211 593 1243 558 1211 b 396 1313 436 1211 400 1243 l 263 1313 b 496 1100 265 1175 360 1100 z m 499 -22 b 892 379 735 -22 892 114 l 892 1007 l 718 1007 l 718 381 b 499 125 718 208 629 125 b 275 381 365 125 275 208 l 275 1007 l 101 1007 l 101 379 b 499 -22 101 114 261 -22 z "},"Ǔ":{"ha":993,"x_min":0,"x_max":0,"o":"m 758 1322 l 600 1322 l 497 1213 l 392 1322 l 235 1322 l 426 1101 l 568 1101 z m 718 381 b 499 125 718 208 629 125 b 275 381 365 125 275 208 l 275 1007 l 101 1007 l 101 379 b 499 -22 101 114 261 -22 b 892 379 735 -22 892 114 l 892 1007 l 718 1007 z "},"Û":{"ha":993,"x_min":0,"x_max":0,"o":"m 600 1101 l 758 1101 l 568 1322 l 426 1322 l 235 1101 l 392 1101 l 497 1211 z m 718 381 b 499 125 718 208 629 125 b 275 381 365 125 275 208 l 275 1007 l 101 1007 l 101 379 b 499 -22 101 114 261 -22 b 892 379 735 -22 892 114 l 892 1007 l 718 1007 z "},"Ü":{"ha":993,"x_min":0,"x_max":0,"o":"m 311 1104 b 410 1200 364 1104 410 1146 b 311 1296 410 1254 367 1296 b 213 1200 256 1296 213 1254 b 311 1104 213 1146 256 1104 z m 682 1104 b 781 1200 735 1104 781 1146 b 682 1296 781 1254 738 1296 b 583 1200 626 1296 583 1254 b 682 1104 583 1146 626 1104 z m 499 -22 b 892 379 735 -22 892 114 l 892 1007 l 718 1007 l 718 381 b 499 125 718 208 629 125 b 275 381 365 125 275 208 l 275 1007 l 101 1007 l 101 379 b 499 -22 101 114 261 -22 z "},"Ụ":{"ha":993,"x_min":0,"x_max":0,"o":"m 499 -22 b 892 379 735 -22 892 114 l 892 1007 l 718 1007 l 718 381 b 499 125 718 208 629 125 b 275 381 365 125 275 208 l 275 1007 l 101 1007 l 101 379 b 499 -22 101 114 261 -22 z m 497 -319 b 604 -215 556 -319 604 -275 b 497 -111 604 -156 557 -111 b 388 -215 435 -111 388 -156 b 497 -319 388 -275 435 -319 z "},"Ù":{"ha":993,"x_min":0,"x_max":0,"o":"m 574 1101 l 442 1322 l 238 1322 l 433 1101 z m 499 -22 b 892 379 735 -22 892 114 l 892 1007 l 718 1007 l 718 381 b 499 125 718 208 629 125 b 275 381 365 125 275 208 l 275 1007 l 101 1007 l 101 379 b 499 -22 101 114 261 -22 z "},"Ű":{"ha":993,"x_min":0,"x_max":0,"o":"m 432 1101 l 556 1322 l 390 1322 l 308 1101 z m 686 1101 l 826 1322 l 661 1322 l 563 1101 z m 499 -22 b 892 379 735 -22 892 114 l 892 1007 l 718 1007 l 718 381 b 499 125 718 208 629 125 b 275 381 365 125 275 208 l 275 1007 l 101 1007 l 101 379 b 499 -22 101 114 261 -22 z "},"Ū":{"ha":993,"x_min":0,"x_max":0,"o":"m 738 1119 l 738 1242 l 254 1242 l 254 1119 z m 499 -22 b 892 379 735 -22 892 114 l 892 1007 l 718 1007 l 718 381 b 499 125 718 208 629 125 b 275 381 365 125 275 208 l 275 1007 l 101 1007 l 101 379 b 499 -22 101 114 261 -22 z "},"Ų":{"ha":993,"x_min":0,"x_max":0,"o":"m 718 381 b 499 125 718 208 629 125 b 275 381 365 125 275 208 l 275 1007 l 101 1007 l 101 379 b 463 -21 101 128 244 -8 b 396 -160 421 -62 396 -110 b 544 -283 396 -233 449 -283 b 622 -276 569 -283 597 -282 l 622 -178 l 604 -178 b 535 -129 560 -178 535 -162 b 603 -12 535 -87 558 -44 b 892 379 781 24 892 156 l 892 1007 l 718 1007 z "},"Ů":{"ha":993,"x_min":0,"x_max":0,"o":"m 496 1094 b 658 1251 590 1094 658 1158 b 496 1408 658 1343 590 1408 b 333 1251 401 1408 333 1343 b 496 1094 333 1158 401 1094 z m 496 1178 b 424 1251 454 1178 424 1208 b 496 1324 424 1293 454 1324 b 567 1251 538 1324 567 1293 b 496 1178 567 1208 538 1178 z m 499 -22 b 892 379 735 -22 892 114 l 892 1007 l 718 1007 l 718 381 b 499 125 718 208 629 125 b 275 381 365 125 275 208 l 275 1007 l 101 1007 l 101 379 b 499 -22 101 114 261 -22 z "},"Ũ":{"ha":993,"x_min":0,"x_max":0,"o":"m 610 1104 b 776 1306 717 1104 776 1171 l 649 1306 b 589 1224 647 1251 631 1224 b 385 1314 518 1224 506 1314 b 218 1113 278 1314 218 1247 l 346 1113 b 406 1196 347 1168 364 1196 b 610 1104 475 1196 488 1104 z m 499 -22 b 892 379 735 -22 892 114 l 892 1007 l 718 1007 l 718 381 b 499 125 718 208 629 125 b 275 381 365 125 275 208 l 275 1007 l 101 1007 l 101 379 b 499 -22 101 114 261 -22 z "},"V":{"ha":997,"x_min":0,"x_max":0,"o":"m 499 225 l 201 1007 l 18 1007 l 413 0 l 583 0 l 979 1007 l 794 1007 z "},"W":{"ha":1457,"x_min":0,"x_max":0,"o":"m 1042 246 l 806 1007 l 647 1007 l 426 249 l 190 1007 l 18 1007 l 342 0 l 510 0 l 728 735 l 957 0 l 1121 0 l 1439 1007 l 1265 1007 z "},"Ẃ":{"ha":1457,"x_min":0,"x_max":0,"o":"m 783 1322 l 649 1101 l 789 1101 l 988 1322 z m 1042 246 l 806 1007 l 647 1007 l 426 249 l 190 1007 l 18 1007 l 342 0 l 510 0 l 728 735 l 957 0 l 1121 0 l 1439 1007 l 1265 1007 z "},"Ŵ":{"ha":1457,"x_min":0,"x_max":0,"o":"m 832 1101 l 990 1101 l 800 1322 l 658 1322 l 467 1101 l 624 1101 l 729 1211 z m 1042 246 l 806 1007 l 647 1007 l 426 249 l 190 1007 l 18 1007 l 342 0 l 510 0 l 728 735 l 957 0 l 1121 0 l 1439 1007 l 1265 1007 z "},"Ẅ":{"ha":1457,"x_min":0,"x_max":0,"o":"m 543 1104 b 642 1200 596 1104 642 1146 b 543 1296 642 1254 599 1296 b 444 1200 488 1296 444 1254 b 543 1104 444 1146 488 1104 z m 914 1104 b 1013 1200 967 1104 1013 1146 b 914 1296 1013 1254 969 1296 b 815 1200 858 1296 815 1254 b 914 1104 815 1146 858 1104 z m 1042 246 l 806 1007 l 647 1007 l 426 249 l 190 1007 l 18 1007 l 342 0 l 510 0 l 728 735 l 957 0 l 1121 0 l 1439 1007 l 1265 1007 z "},"Ẁ":{"ha":1457,"x_min":0,"x_max":0,"o":"m 675 1322 l 471 1322 l 667 1101 l 807 1101 z m 1042 246 l 806 1007 l 647 1007 l 426 249 l 190 1007 l 18 1007 l 342 0 l 510 0 l 728 735 l 957 0 l 1121 0 l 1439 1007 l 1265 1007 z "},"X":{"ha":978,"x_min":0,"x_max":0,"o":"m 596 514 l 931 1007 l 735 1007 l 497 646 l 253 1007 l 47 1007 l 382 525 l 21 0 l 218 0 l 482 392 l 751 0 l 957 0 z "},"Y":{"ha":924,"x_min":0,"x_max":0,"o":"m 718 1007 l 468 567 l 214 1007 l 18 1007 l 375 403 l 375 0 l 549 0 l 549 403 l 906 1007 z "},"Ý":{"ha":924,"x_min":0,"x_max":0,"o":"m 517 1322 l 382 1101 l 522 1101 l 721 1322 z m 718 1007 l 468 567 l 214 1007 l 18 1007 l 375 403 l 375 0 l 549 0 l 549 403 l 906 1007 z "},"Ŷ":{"ha":924,"x_min":0,"x_max":0,"o":"m 565 1101 l 724 1101 l 533 1322 l 392 1322 l 200 1101 l 357 1101 l 463 1211 z m 718 1007 l 468 567 l 214 1007 l 18 1007 l 375 403 l 375 0 l 549 0 l 549 403 l 906 1007 z "},"Ÿ":{"ha":924,"x_min":0,"x_max":0,"o":"m 276 1104 b 375 1200 329 1104 375 1146 b 276 1296 375 1254 332 1296 b 178 1200 221 1296 178 1254 b 276 1104 178 1146 221 1104 z m 647 1104 b 746 1200 700 1104 746 1146 b 647 1296 746 1254 703 1296 b 549 1200 592 1296 549 1254 b 647 1104 549 1146 592 1104 z m 718 1007 l 468 567 l 214 1007 l 18 1007 l 375 403 l 375 0 l 549 0 l 549 403 l 906 1007 z "},"Ỳ":{"ha":924,"x_min":0,"x_max":0,"o":"m 408 1322 l 204 1322 l 400 1101 l 540 1101 z m 718 1007 l 468 567 l 214 1007 l 18 1007 l 375 403 l 375 0 l 549 0 l 549 403 l 906 1007 z "},"Ȳ":{"ha":924,"x_min":0,"x_max":0,"o":"m 221 1242 l 221 1119 l 704 1119 l 704 1242 z m 718 1007 l 468 567 l 214 1007 l 18 1007 l 375 403 l 375 0 l 549 0 l 549 403 l 906 1007 z "},"Ỹ":{"ha":924,"x_min":0,"x_max":0,"o":"m 371 1196 b 575 1104 440 1196 453 1104 b 742 1306 682 1104 742 1171 l 614 1306 b 554 1224 613 1251 596 1224 b 350 1314 483 1224 471 1314 b 183 1113 243 1314 183 1247 l 311 1113 b 371 1196 313 1168 329 1196 z m 718 1007 l 468 567 l 214 1007 l 18 1007 l 375 403 l 375 0 l 549 0 l 549 403 l 906 1007 z "},"Z":{"ha":899,"x_min":0,"x_max":0,"o":"m 826 897 l 826 1007 l 69 1007 l 69 860 l 594 860 l 63 110 l 63 0 l 836 0 l 836 147 l 293 147 z "},"Ź":{"ha":899,"x_min":0,"x_max":0,"o":"m 503 1322 l 368 1101 l 508 1101 l 707 1322 z m 826 897 l 826 1007 l 69 1007 l 69 860 l 594 860 l 63 110 l 63 0 l 836 0 l 836 147 l 293 147 z "},"Ž":{"ha":899,"x_min":0,"x_max":0,"o":"m 708 1322 l 550 1322 l 447 1213 l 342 1322 l 185 1322 l 376 1101 l 518 1101 z m 826 897 l 826 1007 l 69 1007 l 69 860 l 594 860 l 63 110 l 63 0 l 836 0 l 836 147 l 293 147 z "},"Ż":{"ha":899,"x_min":0,"x_max":0,"o":"m 447 1106 b 554 1210 506 1106 554 1150 b 447 1315 554 1271 507 1315 b 338 1210 385 1315 338 1271 b 447 1106 338 1150 385 1106 z m 826 897 l 826 1007 l 69 1007 l 69 860 l 594 860 l 63 110 l 63 0 l 836 0 l 836 147 l 293 147 z "},"a":{"ha":832,"x_min":0,"x_max":0,"o":"m 744 0 b 732 164 739 50 732 115 l 732 489 b 414 761 732 660 615 761 b 88 524 228 761 104 676 l 251 524 b 413 632 263 579 310 632 b 567 492 513 632 567 576 l 567 468 b 467 454 543 464 513 460 l 328 439 b 67 221 150 419 67 349 b 335 -18 67 75 175 -18 b 582 99 444 -18 531 21 l 590 0 z m 371 108 b 231 217 285 108 231 156 b 339 317 231 296 314 314 l 467 331 b 567 358 507 335 540 344 l 567 301 b 371 108 567 179 482 108 z "},"á":{"ha":832,"x_min":0,"x_max":0,"o":"m 468 1086 l 333 865 l 474 865 l 672 1086 z m 744 0 b 732 164 739 50 732 115 l 732 489 b 414 761 732 660 615 761 b 88 524 228 761 104 676 l 251 524 b 413 632 263 579 310 632 b 567 492 513 632 567 576 l 567 468 b 467 454 543 464 513 460 l 328 439 b 67 221 150 419 67 349 b 335 -18 67 75 175 -18 b 582 99 444 -18 531 21 l 590 0 z m 371 108 b 231 217 285 108 231 156 b 339 317 231 296 314 314 l 467 331 b 567 358 507 335 540 344 l 567 301 b 371 108 567 179 482 108 z "},"ă":{"ha":832,"x_min":0,"x_max":0,"o":"m 408 864 b 644 1076 556 864 642 939 l 508 1076 b 410 975 506 1007 471 975 b 308 1076 349 975 313 1007 l 175 1076 b 408 864 178 939 272 864 z m 744 0 b 732 164 739 50 732 115 l 732 489 b 414 761 732 660 615 761 b 88 524 228 761 104 676 l 251 524 b 413 632 263 579 310 632 b 567 492 513 632 567 576 l 567 468 b 467 454 543 464 513 460 l 328 439 b 67 221 150 419 67 349 b 335 -18 67 75 175 -18 b 582 99 444 -18 531 21 l 590 0 z m 371 108 b 231 217 285 108 231 156 b 339 317 231 296 314 314 l 467 331 b 567 358 507 335 540 344 l 567 301 b 371 108 567 179 482 108 z "},"ǎ":{"ha":832,"x_min":0,"x_max":0,"o":"m 671 1086 l 513 1086 l 410 976 l 304 1086 l 147 1086 l 339 865 l 481 865 z m 744 0 b 732 164 739 50 732 115 l 732 489 b 414 761 732 660 615 761 b 88 524 228 761 104 676 l 251 524 b 413 632 263 579 310 632 b 567 492 513 632 567 576 l 567 468 b 467 454 543 464 513 460 l 328 439 b 67 221 150 419 67 349 b 335 -18 67 75 175 -18 b 582 99 444 -18 531 21 l 590 0 z m 371 108 b 231 217 285 108 231 156 b 339 317 231 296 314 314 l 467 331 b 567 358 507 335 540 344 l 567 301 b 371 108 567 179 482 108 z "},"â":{"ha":832,"x_min":0,"x_max":0,"o":"m 513 865 l 671 865 l 481 1086 l 339 1086 l 147 865 l 304 865 l 410 975 z m 744 0 b 732 164 739 50 732 115 l 732 489 b 414 761 732 660 615 761 b 88 524 228 761 104 676 l 251 524 b 413 632 263 579 310 632 b 567 492 513 632 567 576 l 567 468 b 467 454 543 464 513 460 l 328 439 b 67 221 150 419 67 349 b 335 -18 67 75 175 -18 b 582 99 444 -18 531 21 l 590 0 z m 371 108 b 231 217 285 108 231 156 b 339 317 231 296 314 314 l 467 331 b 567 358 507 335 540 344 l 567 301 b 371 108 567 179 482 108 z "},"ä":{"ha":832,"x_min":0,"x_max":0,"o":"m 238 868 b 336 964 290 868 336 910 b 238 1060 336 1018 293 1060 b 139 964 182 1060 139 1018 b 238 868 139 910 182 868 z m 581 868 b 679 964 633 868 679 910 b 581 1060 679 1018 636 1060 b 482 964 525 1060 482 1018 b 581 868 482 910 525 868 z m 744 0 b 732 164 739 50 732 115 l 732 489 b 414 761 732 660 615 761 b 88 524 228 761 104 676 l 251 524 b 413 632 263 579 310 632 b 567 492 513 632 567 576 l 567 468 b 467 454 543 464 513 460 l 328 439 b 67 221 150 419 67 349 b 335 -18 67 75 175 -18 b 582 99 444 -18 531 21 l 590 0 z m 371 108 b 231 217 285 108 231 156 b 339 317 231 296 314 314 l 467 331 b 567 358 507 335 540 344 l 567 301 b 371 108 567 179 482 108 z "},"à":{"ha":832,"x_min":0,"x_max":0,"o":"m 354 1086 l 150 1086 l 346 865 l 486 865 z m 744 0 b 732 164 739 50 732 115 l 732 489 b 414 761 732 660 615 761 b 88 524 228 761 104 676 l 251 524 b 413 632 263 579 310 632 b 567 492 513 632 567 576 l 567 468 b 467 454 543 464 513 460 l 328 439 b 67 221 150 419 67 349 b 335 -18 67 75 175 -18 b 582 99 444 -18 531 21 l 590 0 z m 371 108 b 231 217 285 108 231 156 b 339 317 231 296 314 314 l 467 331 b 567 358 507 335 540 344 l 567 301 b 371 108 567 179 482 108 z "},"ā":{"ha":832,"x_min":0,"x_max":0,"o":"m 168 1006 l 168 883 l 651 883 l 651 1006 z m 744 0 b 732 164 739 50 732 115 l 732 489 b 414 761 732 660 615 761 b 88 524 228 761 104 676 l 251 524 b 413 632 263 579 310 632 b 567 492 513 632 567 576 l 567 468 b 467 454 543 464 513 460 l 328 439 b 67 221 150 419 67 349 b 335 -18 67 75 175 -18 b 582 99 444 -18 531 21 l 590 0 z m 371 108 b 231 217 285 108 231 156 b 339 317 231 296 314 314 l 467 331 b 567 358 507 335 540 344 l 567 301 b 371 108 567 179 482 108 z "},"ą":{"ha":832,"x_min":0,"x_max":0,"o":"m 744 0 b 732 164 739 50 732 115 l 732 489 b 414 761 732 660 615 761 b 88 524 228 761 104 676 l 251 524 b 413 632 263 579 310 632 b 567 492 513 632 567 576 l 567 468 b 467 454 543 464 513 460 l 328 439 b 67 221 150 419 67 349 b 335 -18 67 75 175 -18 b 582 99 444 -18 531 21 l 590 0 b 500 -160 535 -46 500 -101 b 649 -283 500 -233 553 -283 b 726 -276 674 -283 701 -282 l 726 -178 l 708 -178 b 639 -129 664 -178 639 -162 b 726 0 639 -82 669 -33 z m 371 108 b 231 217 285 108 231 156 b 339 317 231 296 314 314 l 467 331 b 567 358 507 335 540 344 l 567 301 b 371 108 567 179 482 108 z "},"å":{"ha":832,"x_min":0,"x_max":0,"o":"m 410 858 b 572 1015 504 858 572 922 b 410 1172 572 1107 504 1172 b 247 1015 315 1172 247 1107 b 410 858 247 922 315 858 z m 410 1088 b 481 1015 451 1088 481 1057 b 410 942 481 972 451 942 b 338 1015 368 942 338 972 b 410 1088 338 1057 368 1088 z m 744 0 b 732 164 739 50 732 115 l 732 489 b 414 761 732 660 615 761 b 88 524 228 761 104 676 l 251 524 b 413 632 263 579 310 632 b 567 492 513 632 567 576 l 567 468 b 467 454 543 464 513 460 l 328 439 b 67 221 150 419 67 349 b 335 -18 67 75 175 -18 b 582 99 444 -18 531 21 l 590 0 z m 371 108 b 231 217 285 108 231 156 b 339 317 231 296 314 314 l 467 331 b 567 358 507 335 540 344 l 567 301 b 371 108 567 179 482 108 z "},"ã":{"ha":832,"x_min":0,"x_max":0,"o":"m 318 960 b 522 868 388 960 400 868 b 689 1069 629 868 689 935 l 561 1069 b 501 988 560 1015 543 988 b 297 1078 431 988 418 1078 b 131 876 190 1078 131 1011 l 258 876 b 318 960 260 932 276 960 z m 744 0 b 732 164 739 50 732 115 l 732 489 b 414 761 732 660 615 761 b 88 524 228 761 104 676 l 251 524 b 413 632 263 579 310 632 b 567 492 513 632 567 576 l 567 468 b 467 454 543 464 513 460 l 328 439 b 67 221 150 419 67 349 b 335 -18 67 75 175 -18 b 582 99 444 -18 531 21 l 590 0 z m 371 108 b 231 217 285 108 231 156 b 339 317 231 296 314 314 l 467 331 b 567 358 507 335 540 344 l 567 301 b 371 108 567 179 482 108 z "},"æ":{"ha":1344,"x_min":0,"x_max":0,"o":"m 931 758 b 672 649 826 758 736 718 b 414 761 622 721 533 761 b 88 524 228 761 104 676 l 251 524 b 413 632 263 579 310 632 b 567 492 513 632 567 576 l 567 468 b 467 454 543 464 513 460 l 328 439 b 67 221 150 419 67 349 b 335 -18 67 75 175 -18 b 636 132 475 -18 582 33 b 936 -22 700 36 807 -22 b 1276 203 1106 -22 1228 69 l 1108 203 b 935 108 1078 146 1017 108 b 719 319 817 108 731 192 l 1285 319 b 931 758 1317 568 1174 758 z m 931 628 b 1129 443 1050 628 1117 554 l 721 443 b 931 628 736 550 815 628 z m 371 108 b 231 218 285 108 231 156 b 339 317 231 297 314 314 l 467 331 b 567 358 507 335 540 344 l 567 301 b 371 108 567 179 482 108 z "},"b":{"ha":921,"x_min":0,"x_max":0,"o":"m 515 760 b 269 646 411 760 326 718 l 269 1007 l 103 1007 l 103 0 l 265 0 l 265 99 b 515 -19 324 24 410 -19 b 864 371 725 -19 864 144 b 515 760 864 606 717 760 z m 481 115 b 269 369 349 115 269 211 b 481 624 269 528 349 624 b 692 369 613 624 692 528 b 481 115 692 211 613 115 z "},"c":{"ha":839,"x_min":0,"x_max":0,"o":"m 440 -22 b 786 238 615 -22 749 82 l 626 238 b 440 115 596 163 535 115 b 228 369 307 115 228 211 b 440 624 228 528 307 624 b 626 499 536 624 597 576 l 786 499 b 440 761 749 657 615 761 b 56 369 213 761 56 597 b 440 -22 56 142 213 -22 z "},"ć":{"ha":839,"x_min":0,"x_max":0,"o":"m 494 865 l 693 1086 l 489 1086 l 354 865 z m 440 -22 b 786 238 615 -22 749 82 l 626 238 b 440 115 596 163 535 115 b 228 369 307 115 228 211 b 440 624 228 528 307 624 b 626 499 536 624 597 576 l 786 499 b 440 761 749 657 615 761 b 56 369 213 761 56 597 b 440 -22 56 142 213 -22 z "},"č":{"ha":839,"x_min":0,"x_max":0,"o":"m 693 1086 l 535 1086 l 432 976 l 326 1086 l 169 1086 l 361 865 l 503 865 z m 440 115 b 228 369 307 115 228 211 b 440 624 228 528 307 624 b 626 499 536 624 597 576 l 786 499 b 440 761 749 657 615 761 b 56 369 213 761 56 597 b 440 -22 56 142 213 -22 b 786 238 615 -22 749 82 l 626 238 b 440 115 596 163 535 115 z "},"ç":{"ha":839,"x_min":0,"x_max":0,"o":"m 440 115 b 228 369 307 115 228 211 b 440 624 228 528 307 624 b 626 499 536 624 597 576 l 786 499 b 440 761 749 657 615 761 b 56 369 213 761 56 597 b 378 -18 56 163 185 8 l 335 -82 l 363 -133 l 397 -133 b 444 -165 433 -133 444 -144 b 382 -194 444 -186 422 -194 b 315 -190 360 -194 343 -193 l 315 -276 b 401 -282 347 -282 374 -282 b 567 -172 519 -282 567 -242 b 440 -74 567 -111 517 -74 l 478 -21 b 786 238 635 -7 751 93 l 626 238 b 440 115 596 163 535 115 z "},"ĉ":{"ha":839,"x_min":0,"x_max":0,"o":"m 535 865 l 693 865 l 503 1086 l 361 1086 l 169 865 l 326 865 l 432 975 z m 440 115 b 228 369 307 115 228 211 b 440 624 228 528 307 624 b 626 499 536 624 597 576 l 786 499 b 440 761 749 657 615 761 b 56 369 213 761 56 597 b 440 -22 56 142 213 -22 b 786 238 615 -22 749 82 l 626 238 b 440 115 596 163 535 115 z "},"ċ":{"ha":839,"x_min":0,"x_max":0,"o":"m 432 869 b 539 974 490 869 539 914 b 432 1079 539 1035 492 1079 b 322 974 369 1079 322 1035 b 432 869 322 914 369 869 z m 440 -22 b 786 238 615 -22 749 82 l 626 238 b 440 115 596 163 535 115 b 228 369 307 115 228 211 b 440 624 228 528 307 624 b 626 499 536 624 597 576 l 786 499 b 440 761 749 657 615 761 b 56 369 213 761 56 597 b 440 -22 56 142 213 -22 z "},"d":{"ha":921,"x_min":0,"x_max":0,"o":"m 651 646 b 406 760 594 718 510 760 b 56 371 204 760 56 606 b 406 -19 56 144 194 -19 b 656 99 511 -19 597 24 l 656 0 l 818 0 l 818 1007 l 651 1007 z m 440 115 b 228 369 307 115 228 211 b 440 624 228 528 307 624 b 651 369 572 624 651 528 b 440 115 651 211 572 115 z "},"ð":{"ha":863,"x_min":0,"x_max":0,"o":"m 644 888 l 644 1017 l 461 925 l 386 1007 l 165 1007 b 322 856 211 967 265 915 l 179 785 l 179 654 l 403 767 b 535 601 447 715 493 660 b 394 625 496 617 447 625 b 56 306 213 625 56 501 b 432 -22 56 110 219 -22 b 807 328 643 -22 807 114 b 539 835 807 461 743 594 z m 432 111 b 228 307 311 111 228 190 b 431 501 228 422 308 501 b 635 307 550 501 635 422 b 432 111 635 196 556 111 z "},"ď":{"ha":921,"x_min":0,"x_max":0,"o":"m 651 646 b 406 760 594 718 510 760 b 56 371 204 760 56 606 b 406 -19 56 144 194 -19 b 656 99 511 -19 597 24 l 656 0 l 818 0 l 818 1007 l 651 1007 z m 881 685 l 992 685 l 1039 1007 l 890 1007 z m 440 115 b 228 369 307 115 228 211 b 440 624 228 528 307 624 b 651 369 572 624 651 528 b 440 115 651 211 572 115 z "},"đ":{"ha":921,"x_min":0,"x_max":0,"o":"m 818 926 l 818 1007 l 651 1007 l 651 926 l 467 926 l 467 803 l 651 803 l 651 646 b 406 760 594 718 510 760 b 56 371 204 760 56 606 b 406 -19 56 144 194 -19 b 656 99 511 -19 597 24 l 656 0 l 818 0 l 818 803 l 918 803 l 918 926 z m 440 115 b 228 369 307 115 228 211 b 440 624 228 528 307 624 b 651 369 572 624 651 528 b 440 115 651 211 572 115 z "},"e":{"ha":846,"x_min":0,"x_max":0,"o":"m 432 758 b 56 364 217 758 56 597 b 438 -22 56 139 215 -22 b 778 203 607 -22 729 69 l 610 203 b 436 108 578 146 518 108 b 221 319 318 108 232 192 l 785 319 b 432 758 818 568 675 758 z m 432 628 b 631 443 551 628 618 554 l 222 443 b 432 628 238 550 317 628 z "},"é":{"ha":846,"x_min":0,"x_max":0,"o":"m 482 1086 l 347 865 l 488 865 l 686 1086 z m 432 758 b 56 364 217 758 56 597 b 438 -22 56 139 215 -22 b 778 203 607 -22 729 69 l 610 203 b 436 108 578 146 518 108 b 221 319 318 108 232 192 l 785 319 b 432 758 818 568 675 758 z m 432 628 b 631 443 551 628 618 554 l 222 443 b 432 628 238 550 317 628 z "},"ĕ":{"ha":846,"x_min":0,"x_max":0,"o":"m 422 864 b 658 1076 569 864 656 939 l 522 1076 b 424 975 519 1007 485 975 b 322 1076 363 975 326 1007 l 189 1076 b 422 864 192 939 286 864 z m 432 758 b 56 364 217 758 56 597 b 438 -22 56 139 215 -22 b 778 203 607 -22 729 69 l 610 203 b 436 108 578 146 518 108 b 221 319 318 108 232 192 l 785 319 b 432 758 818 568 675 758 z m 432 628 b 631 443 551 628 618 554 l 222 443 b 432 628 238 550 317 628 z "},"ě":{"ha":846,"x_min":0,"x_max":0,"o":"m 685 1086 l 526 1086 l 424 976 l 318 1086 l 161 1086 l 353 865 l 494 865 z m 432 758 b 56 364 217 758 56 597 b 438 -22 56 139 215 -22 b 778 203 607 -22 729 69 l 610 203 b 436 108 578 146 518 108 b 221 319 318 108 232 192 l 785 319 b 432 758 818 568 675 758 z m 432 628 b 631 443 551 628 618 554 l 222 443 b 432 628 238 550 317 628 z "},"ê":{"ha":846,"x_min":0,"x_max":0,"o":"m 526 865 l 685 865 l 494 1086 l 353 1086 l 161 865 l 318 865 l 424 975 z m 432 758 b 56 364 217 758 56 597 b 438 -22 56 139 215 -22 b 778 203 607 -22 729 69 l 610 203 b 436 108 578 146 518 108 b 221 319 318 108 232 192 l 785 319 b 432 758 818 568 675 758 z m 432 628 b 631 443 551 628 618 554 l 222 443 b 432 628 238 550 317 628 z "},"ë":{"ha":846,"x_min":0,"x_max":0,"o":"m 251 868 b 350 964 304 868 350 910 b 251 1060 350 1018 307 1060 b 153 964 196 1060 153 1018 b 251 868 153 910 196 868 z m 594 868 b 693 964 647 868 693 910 b 594 1060 693 1018 650 1060 b 496 964 539 1060 496 1018 b 594 868 496 910 539 868 z m 432 758 b 56 364 217 758 56 597 b 438 -22 56 139 215 -22 b 778 203 607 -22 729 69 l 610 203 b 436 108 578 146 518 108 b 221 319 318 108 232 192 l 785 319 b 432 758 818 568 675 758 z m 432 628 b 631 443 551 628 618 554 l 222 443 b 432 628 238 550 317 628 z "},"ė":{"ha":846,"x_min":0,"x_max":0,"o":"m 424 869 b 531 974 482 869 531 914 b 424 1079 531 1035 483 1079 b 314 974 361 1079 314 1035 b 424 869 314 914 361 869 z m 432 758 b 56 364 217 758 56 597 b 438 -22 56 139 215 -22 b 778 203 607 -22 729 69 l 610 203 b 436 108 578 146 518 108 b 221 319 318 108 232 192 l 785 319 b 432 758 818 568 675 758 z m 432 628 b 631 443 551 628 618 554 l 222 443 b 432 628 238 550 317 628 z "},"è":{"ha":846,"x_min":0,"x_max":0,"o":"m 368 1086 l 164 1086 l 360 865 l 500 865 z m 432 758 b 56 364 217 758 56 597 b 438 -22 56 139 215 -22 b 778 203 607 -22 729 69 l 610 203 b 436 108 578 146 518 108 b 221 319 318 108 232 192 l 785 319 b 432 758 818 568 675 758 z m 432 628 b 631 443 551 628 618 554 l 222 443 b 432 628 238 550 317 628 z "},"ē":{"ha":846,"x_min":0,"x_max":0,"o":"m 182 1006 l 182 883 l 665 883 l 665 1006 z m 432 758 b 56 364 217 758 56 597 b 438 -22 56 139 215 -22 b 778 203 607 -22 729 69 l 610 203 b 436 108 578 146 518 108 b 221 319 318 108 232 192 l 785 319 b 432 758 818 568 675 758 z m 432 628 b 631 443 551 628 618 554 l 222 443 b 432 628 238 550 317 628 z "},"ę":{"ha":846,"x_min":0,"x_max":0,"o":"m 432 758 b 56 364 217 758 56 597 b 385 -19 56 157 190 4 b 317 -160 343 -61 317 -108 b 465 -283 317 -233 369 -283 b 543 -276 490 -283 518 -282 l 543 -178 l 525 -178 b 456 -129 481 -178 456 -162 b 522 -14 456 -89 479 -46 b 778 203 647 11 738 93 l 610 203 b 436 108 578 146 518 108 b 221 319 318 108 232 192 l 785 319 b 432 758 818 568 675 758 z m 432 628 b 631 443 551 628 618 554 l 222 443 b 432 628 238 550 317 628 z "},"ẽ":{"ha":846,"x_min":0,"x_max":0,"o":"m 332 960 b 536 868 401 960 414 868 b 703 1069 643 868 703 935 l 575 1069 b 515 988 574 1015 557 988 b 311 1078 444 988 432 1078 b 144 876 204 1078 144 1011 l 272 876 b 332 960 274 932 290 960 z m 432 758 b 56 364 217 758 56 597 b 438 -22 56 139 215 -22 b 778 203 607 -22 729 69 l 610 203 b 436 108 578 146 518 108 b 221 319 318 108 232 192 l 785 319 b 432 758 818 568 675 758 z m 432 628 b 631 443 551 628 618 554 l 222 443 b 432 628 238 550 317 628 z "},"f":{"ha":565,"x_min":0,"x_max":0,"o":"m 540 871 l 540 1007 l 388 1007 b 171 814 221 1007 171 946 l 171 739 l 25 739 l 25 603 l 171 603 l 171 0 l 338 0 l 338 603 l 524 603 l 524 739 l 338 739 l 338 792 b 418 871 338 863 357 871 z "},"g":{"ha":914,"x_min":0,"x_max":0,"o":"m 649 650 b 401 760 592 718 507 760 b 56 396 203 760 56 614 b 403 28 56 183 193 28 b 644 133 504 28 588 67 l 644 54 b 444 -142 644 -61 575 -142 b 251 -28 346 -142 274 -100 l 89 -28 b 447 -271 121 -187 260 -271 b 811 74 676 -271 811 -136 l 811 739 l 649 739 z m 433 157 b 221 393 300 157 221 246 b 433 631 221 542 300 631 b 644 393 565 631 644 542 b 433 157 644 246 565 157 z "},"ğ":{"ha":914,"x_min":0,"x_max":0,"o":"m 432 864 b 668 1076 579 864 665 939 l 532 1076 b 433 975 529 1007 494 975 b 332 1076 372 975 336 1007 l 199 1076 b 432 864 201 939 296 864 z m 649 650 b 401 760 592 718 507 760 b 56 396 203 760 56 614 b 403 28 56 183 193 28 b 644 133 504 28 588 67 l 644 54 b 444 -142 644 -61 575 -142 b 251 -28 346 -142 274 -100 l 89 -28 b 447 -271 121 -187 260 -271 b 811 74 676 -271 811 -136 l 811 739 l 649 739 z m 433 157 b 221 393 300 157 221 246 b 433 631 221 542 300 631 b 644 393 565 631 644 542 b 433 157 644 246 565 157 z "},"ǧ":{"ha":914,"x_min":0,"x_max":0,"o":"m 694 1086 l 536 1086 l 433 976 l 328 1086 l 171 1086 l 363 865 l 504 865 z m 649 650 b 401 760 592 718 507 760 b 56 396 203 760 56 614 b 403 28 56 183 193 28 b 644 133 504 28 588 67 l 644 54 b 444 -142 644 -61 575 -142 b 251 -28 346 -142 274 -100 l 89 -28 b 447 -271 121 -187 260 -271 b 811 74 676 -271 811 -136 l 811 739 l 649 739 z m 433 157 b 221 393 300 157 221 246 b 433 631 221 542 300 631 b 644 393 565 631 644 542 b 433 157 644 246 565 157 z "},"ĝ":{"ha":914,"x_min":0,"x_max":0,"o":"m 536 865 l 694 865 l 504 1086 l 363 1086 l 171 865 l 328 865 l 433 975 z m 649 650 b 401 760 592 718 507 760 b 56 396 203 760 56 614 b 403 28 56 183 193 28 b 644 133 504 28 588 67 l 644 54 b 444 -142 644 -61 575 -142 b 251 -28 346 -142 274 -100 l 89 -28 b 447 -271 121 -187 260 -271 b 811 74 676 -271 811 -136 l 811 739 l 649 739 z m 433 157 b 221 393 300 157 221 246 b 433 631 221 542 300 631 b 644 393 565 631 644 542 b 433 157 644 246 565 157 z "},"ģ":{"ha":914,"x_min":0,"x_max":0,"o":"m 422 1086 l 349 865 l 504 865 l 540 1086 z m 649 650 b 401 760 592 718 507 760 b 56 396 203 760 56 614 b 403 28 56 183 193 28 b 644 133 504 28 588 67 l 644 54 b 444 -142 644 -61 575 -142 b 251 -28 346 -142 274 -100 l 89 -28 b 447 -271 121 -187 260 -271 b 811 74 676 -271 811 -136 l 811 739 l 649 739 z m 433 157 b 221 393 300 157 221 246 b 433 631 221 542 300 631 b 644 393 565 631 644 542 b 433 157 644 246 565 157 z "},"ġ":{"ha":914,"x_min":0,"x_max":0,"o":"m 435 869 b 542 974 493 869 542 914 b 435 1079 542 1035 494 1079 b 325 974 372 1079 325 1035 b 435 869 325 914 372 869 z m 649 650 b 401 760 592 718 507 760 b 56 396 203 760 56 614 b 403 28 56 183 193 28 b 644 133 504 28 588 67 l 644 54 b 444 -142 644 -61 575 -142 b 251 -28 346 -142 274 -100 l 89 -28 b 447 -271 121 -187 260 -271 b 811 74 676 -271 811 -136 l 811 739 l 649 739 z m 433 157 b 221 393 300 157 221 246 b 433 631 221 542 300 631 b 644 393 565 631 644 542 b 433 157 644 246 565 157 z "},"h":{"ha":868,"x_min":0,"x_max":0,"o":"m 492 761 b 269 654 397 761 321 725 l 269 1007 l 103 1007 l 103 0 l 269 0 l 269 417 b 449 626 269 551 343 626 b 607 453 553 626 607 551 l 607 0 l 774 0 l 774 474 b 492 761 774 653 664 761 z "},"ħ":{"ha":868,"x_min":0,"x_max":0,"o":"m 492 761 b 269 654 397 761 321 725 l 269 803 l 454 803 l 454 926 l 269 926 l 269 1007 l 103 1007 l 103 926 l 3 926 l 3 803 l 103 803 l 103 0 l 269 0 l 269 417 b 449 626 269 551 343 626 b 607 453 553 626 607 551 l 607 0 l 774 0 l 774 474 b 492 761 774 653 664 761 z "},"ĥ":{"ha":868,"x_min":0,"x_max":0,"o":"m 447 1101 l 257 1322 l 115 1322 l -76 1101 l 81 1101 l 186 1211 l 289 1101 z m 492 761 b 269 654 397 761 321 725 l 269 1007 l 103 1007 l 103 0 l 269 0 l 269 417 b 449 626 269 551 343 626 b 607 453 553 626 607 551 l 607 0 l 774 0 l 774 474 b 492 761 774 653 664 761 z "},"i":{"ha":372,"x_min":0,"x_max":0,"o":"m 186 869 b 293 974 244 869 293 914 b 186 1079 293 1035 246 1079 b 76 974 124 1079 76 1035 b 186 869 76 914 124 869 z m 269 0 l 269 739 l 103 739 l 103 0 z "},"ı":{"ha":372,"x_min":0,"x_max":0,"o":"m 269 0 l 269 739 l 103 739 l 103 0 z "},"í":{"ha":372,"x_min":0,"x_max":0,"o":"m 250 865 l 449 1086 l 244 1086 l 110 865 z m 269 0 l 269 739 l 103 739 l 103 0 z "},"ĭ":{"ha":372,"x_min":0,"x_max":0,"o":"m 185 864 b 421 1076 332 864 418 939 l 285 1076 b 186 975 282 1007 247 975 b 85 1076 125 975 89 1007 l -49 1076 b 185 864 -46 939 49 864 z m 269 0 l 269 739 l 103 739 l 103 0 z "},"ǐ":{"ha":372,"x_min":0,"x_max":0,"o":"m 447 1086 l 289 1086 l 186 976 l 81 1086 l -76 1086 l 115 865 l 257 865 z m 269 0 l 269 739 l 103 739 l 103 0 z "},"î":{"ha":372,"x_min":0,"x_max":0,"o":"m 115 1086 l -76 865 l 81 865 l 186 975 l 289 865 l 447 865 l 257 1086 z m 269 0 l 269 739 l 103 739 l 103 0 z "},"ï":{"ha":372,"x_min":0,"x_max":0,"o":"m 14 868 b 113 964 67 868 113 910 b 14 1060 113 1018 69 1060 b -85 964 -42 1060 -85 1018 b 14 868 -85 910 -42 868 z m 357 868 b 456 964 410 868 456 910 b 357 1060 456 1018 413 1060 b 258 964 301 1060 258 1018 b 357 868 258 910 301 868 z m 269 0 l 269 739 l 103 739 l 103 0 z "},"ị":{"ha":372,"x_min":0,"x_max":0,"o":"m 186 869 b 293 974 244 869 293 914 b 186 1079 293 1035 246 1079 b 76 974 124 1079 76 1035 b 186 869 76 914 124 869 z m 269 0 l 269 739 l 103 739 l 103 0 z m 186 -319 b 293 -215 244 -319 293 -275 b 186 -111 293 -156 246 -111 b 76 -215 124 -111 76 -156 b 186 -319 76 -275 124 -319 z "},"ì":{"ha":372,"x_min":0,"x_max":0,"o":"m 263 865 l 131 1086 l -74 1086 l 122 865 z m 269 0 l 269 739 l 103 739 l 103 0 z "},"ĳ":{"ha":750,"x_min":0,"x_max":0,"o":"m 186 869 b 293 974 244 869 293 914 b 186 1079 293 1035 246 1079 b 76 974 124 1079 76 1035 b 186 869 76 914 124 869 z m 563 869 b 671 974 622 869 671 914 b 563 1079 671 1035 624 1079 b 454 974 501 1079 454 1035 b 563 869 454 914 501 869 z m 269 0 l 269 739 l 103 739 l 103 0 z m 446 -271 b 647 -83 601 -271 647 -217 l 647 739 l 482 739 l 482 -68 b 408 -128 482 -125 464 -128 l 318 -128 l 318 -271 z "},"ī":{"ha":372,"x_min":0,"x_max":0,"o":"m 403 883 l 403 1006 l -32 1006 l -32 883 z m 269 0 l 269 739 l 103 739 l 103 0 z "},"į":{"ha":372,"x_min":0,"x_max":0,"o":"m 186 869 b 293 974 244 869 293 914 b 186 1079 293 1035 246 1079 b 76 974 124 1079 76 1035 b 186 869 76 914 124 869 z m 133 0 b 43 -160 78 -46 43 -101 b 192 -283 43 -233 96 -283 b 269 -276 217 -283 244 -282 l 269 -178 l 251 -178 b 182 -129 207 -178 182 -162 b 269 0 182 -82 213 -33 l 269 739 l 103 739 l 103 0 z "},"ĩ":{"ha":372,"x_min":0,"x_max":0,"o":"m 299 868 b 465 1069 406 868 465 935 l 338 1069 b 278 988 336 1015 319 988 b 74 1078 207 988 194 1078 b -93 876 -33 1078 -93 1011 l 35 876 b 94 960 36 932 53 960 b 299 868 164 960 176 868 z m 269 0 l 269 739 l 103 739 l 103 0 z "},"j":{"ha":379,"x_min":0,"x_max":0,"o":"m 192 869 b 299 974 250 869 299 914 b 192 1079 299 1035 251 1079 b 82 974 129 1079 82 1035 b 192 869 82 914 129 869 z m 74 -271 b 276 -83 229 -271 276 -217 l 276 739 l 110 739 l 110 -68 b 36 -128 110 -125 92 -128 l -54 -128 l -54 -271 z "},"ȷ":{"ha":379,"x_min":0,"x_max":0,"o":"m 74 -271 b 276 -83 229 -271 276 -217 l 276 739 l 110 739 l 110 -68 b 36 -128 110 -125 92 -128 l -54 -128 l -54 -271 z "},"ĵ":{"ha":379,"x_min":0,"x_max":0,"o":"m 121 1086 l -71 865 l 86 865 l 192 975 l 294 865 l 453 865 l 263 1086 z m 110 -68 b 36 -128 110 -125 92 -128 l -54 -128 l -54 -271 l 74 -271 b 276 -83 229 -271 276 -217 l 276 739 l 110 739 z "},"k":{"ha":818,"x_min":0,"x_max":0,"o":"m 793 0 l 483 442 l 767 739 l 569 739 l 269 428 l 269 1007 l 103 1007 l 103 0 l 269 0 l 269 228 l 368 329 l 599 0 z "},"ķ":{"ha":818,"x_min":0,"x_max":0,"o":"m 767 739 l 569 739 l 269 428 l 269 1007 l 103 1007 l 103 0 l 269 0 l 269 228 l 368 329 l 599 0 l 793 0 l 483 442 z m 413 -294 l 486 -83 l 328 -83 l 292 -294 z "},"l":{"ha":372,"x_min":0,"x_max":0,"o":"m 269 0 l 269 1007 l 103 1007 l 103 0 z "},"ĺ":{"ha":372,"x_min":0,"x_max":0,"o":"m 250 1133 l 449 1354 l 244 1354 l 110 1133 z m 269 0 l 269 1007 l 103 1007 l 103 0 z "},"ľ":{"ha":372,"x_min":0,"x_max":0,"o":"m 269 0 l 269 1007 l 103 1007 l 103 0 z m 443 685 l 490 1007 l 342 1007 l 332 685 z "},"ļ":{"ha":372,"x_min":0,"x_max":0,"o":"m 269 0 l 269 1007 l 103 1007 l 103 0 z m 192 -294 l 265 -83 l 107 -83 l 71 -294 z "},"ł":{"ha":372,"x_min":0,"x_max":0,"o":"m 269 635 l 269 1007 l 103 1007 l 103 544 l 10 481 l 10 317 l 103 379 l 103 0 l 269 0 l 269 469 l 360 532 l 360 697 z "},"m":{"ha":1338,"x_min":0,"x_max":0,"o":"m 968 761 b 715 635 858 761 771 718 b 482 761 678 700 608 761 b 264 649 390 761 314 722 l 264 739 l 103 739 l 103 0 l 269 0 l 269 417 b 439 626 269 551 340 626 b 589 453 535 626 589 551 l 589 0 l 756 0 l 756 417 b 926 626 756 551 826 626 b 1076 453 1022 626 1076 551 l 1076 0 l 1243 0 l 1243 474 b 968 761 1243 653 1133 761 z "},"n":{"ha":868,"x_min":0,"x_max":0,"o":"m 492 761 b 264 646 394 761 315 722 l 264 739 l 103 739 l 103 0 l 269 0 l 269 417 b 449 626 269 551 343 626 b 607 453 553 626 607 551 l 607 0 l 774 0 l 774 474 b 492 761 774 653 664 761 z "},"ń":{"ha":868,"x_min":0,"x_max":0,"o":"m 492 1086 l 357 865 l 497 865 l 696 1086 z m 492 761 b 264 646 394 761 315 722 l 264 739 l 103 739 l 103 0 l 269 0 l 269 417 b 449 626 269 551 343 626 b 607 453 553 626 607 551 l 607 0 l 774 0 l 774 474 b 492 761 774 653 664 761 z "},"ň":{"ha":868,"x_min":0,"x_max":0,"o":"m 694 1086 l 536 1086 l 433 976 l 328 1086 l 171 1086 l 363 865 l 504 865 z m 492 761 b 264 646 394 761 315 722 l 264 739 l 103 739 l 103 0 l 269 0 l 269 417 b 449 626 269 551 343 626 b 607 453 553 626 607 551 l 607 0 l 774 0 l 774 474 b 492 761 774 653 664 761 z "},"ņ":{"ha":868,"x_min":0,"x_max":0,"o":"m 492 761 b 264 646 394 761 315 722 l 264 739 l 103 739 l 103 0 l 269 0 l 269 417 b 449 626 269 551 343 626 b 607 453 553 626 607 551 l 607 0 l 774 0 l 774 474 b 492 761 774 653 664 761 z m 439 -294 l 513 -83 l 354 -83 l 318 -294 z "},"ñ":{"ha":868,"x_min":0,"x_max":0,"o":"m 342 960 b 546 868 411 960 424 868 b 713 1069 653 868 713 935 l 585 1069 b 525 988 583 1015 567 988 b 321 1078 454 988 442 1078 b 154 876 214 1078 154 1011 l 282 876 b 342 960 283 932 300 960 z m 492 761 b 264 646 394 761 315 722 l 264 739 l 103 739 l 103 0 l 269 0 l 269 417 b 449 626 269 551 343 626 b 607 453 553 626 607 551 l 607 0 l 774 0 l 774 474 b 492 761 774 653 664 761 z "},"o":{"ha":879,"x_min":0,"x_max":0,"o":"m 440 -22 b 824 369 667 -22 824 142 b 440 761 824 597 667 761 b 56 369 213 761 56 597 b 440 -22 56 142 213 -22 z m 440 115 b 228 369 307 115 228 211 b 440 624 228 528 307 624 b 651 369 572 624 651 528 b 440 115 651 211 572 115 z "},"ó":{"ha":879,"x_min":0,"x_max":0,"o":"m 503 865 l 701 1086 l 497 1086 l 363 865 z m 440 -22 b 824 369 667 -22 824 142 b 440 761 824 597 667 761 b 56 369 213 761 56 597 b 440 -22 56 142 213 -22 z m 440 115 b 228 369 307 115 228 211 b 440 624 228 528 307 624 b 651 369 572 624 651 528 b 440 115 651 211 572 115 z "},"ŏ":{"ha":879,"x_min":0,"x_max":0,"o":"m 439 864 b 675 1076 586 864 672 939 l 539 1076 b 440 975 536 1007 501 975 b 339 1076 379 975 343 1007 l 206 1076 b 439 864 208 939 303 864 z m 440 -22 b 824 369 667 -22 824 142 b 440 761 824 597 667 761 b 56 369 213 761 56 597 b 440 -22 56 142 213 -22 z m 440 115 b 228 369 307 115 228 211 b 440 624 228 528 307 624 b 651 369 572 624 651 528 b 440 115 651 211 572 115 z "},"ǒ":{"ha":879,"x_min":0,"x_max":0,"o":"m 701 1086 l 543 1086 l 440 976 l 335 1086 l 178 1086 l 369 865 l 511 865 z m 440 761 b 56 369 213 761 56 597 b 440 -22 56 142 213 -22 b 824 369 667 -22 824 142 b 440 761 824 597 667 761 z m 440 115 b 228 369 307 115 228 211 b 440 624 228 528 307 624 b 651 369 572 624 651 528 b 440 115 651 211 572 115 z "},"ô":{"ha":879,"x_min":0,"x_max":0,"o":"m 543 865 l 701 865 l 511 1086 l 369 1086 l 178 865 l 335 865 l 440 975 z m 440 761 b 56 369 213 761 56 597 b 440 -22 56 142 213 -22 b 824 369 667 -22 824 142 b 440 761 824 597 667 761 z m 440 115 b 228 369 307 115 228 211 b 440 624 228 528 307 624 b 651 369 572 624 651 528 b 440 115 651 211 572 115 z "},"ö":{"ha":879,"x_min":0,"x_max":0,"o":"m 268 868 b 367 964 321 868 367 910 b 268 1060 367 1018 324 1060 b 169 964 213 1060 169 1018 b 268 868 169 910 213 868 z m 611 868 b 710 964 664 868 710 910 b 611 1060 710 1018 667 1060 b 513 964 556 1060 513 1018 b 611 868 513 910 556 868 z m 440 -22 b 824 369 667 -22 824 142 b 440 761 824 597 667 761 b 56 369 213 761 56 597 b 440 -22 56 142 213 -22 z m 440 115 b 228 369 307 115 228 211 b 440 624 228 528 307 624 b 651 369 572 624 651 528 b 440 115 651 211 572 115 z "},"ọ":{"ha":879,"x_min":0,"x_max":0,"o":"m 440 -22 b 824 369 667 -22 824 142 b 440 761 824 597 667 761 b 56 369 213 761 56 597 b 440 -22 56 142 213 -22 z m 440 115 b 228 369 307 115 228 211 b 440 624 228 528 307 624 b 651 369 572 624 651 528 b 440 115 651 211 572 115 z m 440 -319 b 547 -215 499 -319 547 -275 b 440 -111 547 -156 500 -111 b 331 -215 378 -111 331 -156 b 440 -319 331 -275 378 -319 z "},"ò":{"ha":879,"x_min":0,"x_max":0,"o":"m 517 865 l 385 1086 l 181 1086 l 376 865 z m 440 -22 b 824 369 667 -22 824 142 b 440 761 824 597 667 761 b 56 369 213 761 56 597 b 440 -22 56 142 213 -22 z m 440 115 b 228 369 307 115 228 211 b 440 624 228 528 307 624 b 651 369 572 624 651 528 b 440 115 651 211 572 115 z "},"ő":{"ha":879,"x_min":0,"x_max":0,"o":"m 382 865 l 506 1086 l 340 1086 l 258 865 z m 636 865 l 776 1086 l 611 1086 l 513 865 z m 440 -22 b 824 369 667 -22 824 142 b 440 761 824 597 667 761 b 56 369 213 761 56 597 b 440 -22 56 142 213 -22 z m 440 115 b 228 369 307 115 228 211 b 440 624 228 528 307 624 b 651 369 572 624 651 528 b 440 115 651 211 572 115 z "},"ō":{"ha":879,"x_min":0,"x_max":0,"o":"m 681 883 l 681 1006 l 197 1006 l 197 883 z m 440 -22 b 824 369 667 -22 824 142 b 440 761 824 597 667 761 b 56 369 213 761 56 597 b 440 -22 56 142 213 -22 z m 440 115 b 228 369 307 115 228 211 b 440 624 228 528 307 624 b 651 369 572 624 651 528 b 440 115 651 211 572 115 z "},"ø":{"ha":879,"x_min":0,"x_max":0,"o":"m 675 739 l 647 706 b 440 761 589 742 519 761 b 56 369 213 761 56 597 b 143 110 56 267 88 178 l 49 0 l 199 0 l 229 35 b 440 -22 288 -1 360 -22 b 824 369 667 -22 824 142 b 733 632 824 474 790 564 l 825 739 z m 440 624 b 554 593 485 624 522 613 l 253 235 b 228 369 236 272 228 317 b 440 624 228 528 307 624 z m 440 115 b 322 149 394 115 354 126 l 625 508 b 651 369 642 471 651 424 b 440 115 651 211 572 115 z "},"õ":{"ha":879,"x_min":0,"x_max":0,"o":"m 553 868 b 719 1069 660 868 719 935 l 592 1069 b 532 988 590 1015 574 988 b 328 1078 461 988 449 1078 b 161 876 221 1078 161 1011 l 289 876 b 349 960 290 932 307 960 b 553 868 418 960 431 868 z m 440 -22 b 824 369 667 -22 824 142 b 440 761 824 597 667 761 b 56 369 213 761 56 597 b 440 -22 56 142 213 -22 z m 440 115 b 228 369 307 115 228 211 b 440 624 228 528 307 624 b 651 369 572 624 651 528 b 440 115 651 211 572 115 z "},"œ":{"ha":1426,"x_min":0,"x_max":0,"o":"m 1013 758 b 728 617 894 758 793 706 b 440 761 664 707 563 761 b 56 369 213 761 56 597 b 440 -22 56 142 213 -22 b 726 121 563 -22 663 32 b 1018 -22 792 32 894 -22 b 1358 203 1188 -22 1310 69 l 1190 203 b 1017 108 1160 146 1099 108 b 801 319 899 108 813 192 l 1367 319 b 1013 758 1399 568 1256 758 z m 1013 628 b 1211 443 1132 628 1199 554 l 803 443 b 1013 628 818 550 897 628 z m 440 115 b 228 369 307 115 228 211 b 440 624 228 528 307 624 b 651 369 572 624 651 528 b 440 115 651 211 572 115 z "},"p":{"ha":921,"x_min":0,"x_max":0,"o":"m 515 760 b 265 640 408 760 322 715 l 265 739 l 103 739 l 103 -250 l 269 -250 l 269 93 b 515 -19 328 22 411 -19 b 864 371 725 -19 864 144 b 515 760 864 606 717 760 z m 481 115 b 269 369 349 115 269 211 b 481 624 269 528 349 624 b 692 369 613 624 692 528 b 481 115 692 211 613 115 z "},"þ":{"ha":921,"x_min":0,"x_max":0,"o":"m 515 760 b 269 646 411 760 326 718 l 269 1007 l 103 1007 l 103 -250 l 269 -250 l 269 93 b 515 -19 328 22 411 -19 b 864 371 725 -19 864 144 b 515 760 864 606 717 760 z m 481 115 b 269 369 349 115 269 211 b 481 624 269 528 349 624 b 692 369 613 624 692 528 b 481 115 692 211 613 115 z "},"q":{"ha":921,"x_min":0,"x_max":0,"o":"m 656 640 b 406 760 599 715 513 760 b 56 371 204 760 56 606 b 406 -19 56 144 194 -19 b 651 93 510 -19 593 22 l 651 -250 l 818 -250 l 818 739 l 656 739 z m 440 115 b 228 369 307 115 228 211 b 440 624 228 528 307 624 b 651 369 572 624 651 528 b 440 115 651 211 572 115 z "},"r":{"ha":547,"x_min":0,"x_max":0,"o":"m 485 750 b 264 636 385 750 311 710 l 264 739 l 103 739 l 103 0 l 269 0 l 269 383 b 478 599 269 540 332 599 l 524 599 l 524 749 b 485 750 511 750 499 750 z "},"ŕ":{"ha":547,"x_min":0,"x_max":0,"o":"m 350 1086 l 215 865 l 356 865 l 554 1086 z m 264 739 l 103 739 l 103 0 l 269 0 l 269 383 b 478 599 269 540 332 599 l 524 599 l 524 749 b 485 750 511 750 499 750 b 264 636 385 750 311 710 z "},"ř":{"ha":547,"x_min":0,"x_max":0,"o":"m 554 1086 l 396 1086 l 293 976 l 188 1086 l 31 1086 l 222 865 l 364 865 z m 264 739 l 103 739 l 103 0 l 269 0 l 269 383 b 478 599 269 540 332 599 l 524 599 l 524 749 b 485 750 511 750 499 750 b 264 636 385 750 311 710 z "},"ŗ":{"ha":547,"x_min":0,"x_max":0,"o":"m 485 750 b 264 636 385 750 311 710 l 264 739 l 103 739 l 103 0 l 269 0 l 269 383 b 478 599 269 540 332 599 l 524 599 l 524 749 b 485 750 511 750 499 750 z m 192 -294 l 265 -83 l 107 -83 l 71 -294 z "},"s":{"ha":785,"x_min":0,"x_max":0,"o":"m 403 -22 b 726 225 586 -22 726 65 b 490 443 726 378 618 432 l 368 454 b 243 542 294 460 243 483 b 388 635 243 597 299 635 b 550 524 479 635 535 596 l 711 524 b 390 761 697 675 564 761 b 76 518 201 761 76 660 b 297 314 76 392 175 324 l 424 303 b 561 208 488 297 561 281 b 404 106 561 140 492 106 b 217 231 313 106 239 142 l 51 231 b 403 -22 75 58 226 -22 z "},"ś":{"ha":785,"x_min":0,"x_max":0,"o":"m 456 865 l 654 1086 l 450 1086 l 315 865 z m 403 -22 b 726 225 586 -22 726 65 b 490 443 726 378 618 432 l 368 454 b 243 542 294 460 243 483 b 388 635 243 597 299 635 b 550 524 479 635 535 596 l 711 524 b 390 761 697 675 564 761 b 76 518 201 761 76 660 b 297 314 76 392 175 324 l 424 303 b 561 208 488 297 561 281 b 404 106 561 140 492 106 b 217 231 313 106 239 142 l 51 231 b 403 -22 75 58 226 -22 z "},"š":{"ha":785,"x_min":0,"x_max":0,"o":"m 653 1086 l 494 1086 l 392 976 l 286 1086 l 129 1086 l 321 865 l 463 865 z m 368 454 b 243 542 294 460 243 483 b 388 635 243 597 299 635 b 550 524 479 635 535 596 l 711 524 b 390 761 697 675 564 761 b 76 518 201 761 76 660 b 297 314 76 392 175 324 l 424 303 b 561 208 488 297 561 281 b 404 106 561 140 492 106 b 217 231 313 106 239 142 l 51 231 b 403 -22 75 58 226 -22 b 726 225 586 -22 726 65 b 490 443 726 378 618 432 z "},"ş":{"ha":785,"x_min":0,"x_max":0,"o":"m 726 225 b 490 443 726 378 618 432 l 368 454 b 243 542 294 460 243 483 b 388 635 243 597 299 635 b 550 524 479 635 535 596 l 711 524 b 390 761 697 675 564 761 b 76 518 201 761 76 660 b 297 314 76 392 175 324 l 424 303 b 561 208 488 297 561 281 b 404 106 561 140 492 106 b 217 231 313 106 239 142 l 51 231 b 335 -18 72 81 189 0 l 292 -82 l 319 -133 l 354 -133 b 401 -165 390 -133 401 -144 b 339 -194 401 -186 379 -194 b 272 -190 317 -194 300 -193 l 272 -276 b 358 -282 304 -282 331 -282 b 524 -172 476 -282 524 -242 b 397 -74 524 -111 474 -74 l 435 -21 b 726 225 603 -11 726 75 z "},"ŝ":{"ha":785,"x_min":0,"x_max":0,"o":"m 494 865 l 653 865 l 463 1086 l 321 1086 l 129 865 l 286 865 l 392 975 z m 368 454 b 243 542 294 460 243 483 b 388 635 243 597 299 635 b 550 524 479 635 535 596 l 711 524 b 390 761 697 675 564 761 b 76 518 201 761 76 660 b 297 314 76 392 175 324 l 424 303 b 561 208 488 297 561 281 b 404 106 561 140 492 106 b 217 231 313 106 239 142 l 51 231 b 403 -22 75 58 226 -22 b 726 225 586 -22 726 65 b 490 443 726 378 618 432 z "},"ș":{"ha":785,"x_min":0,"x_max":0,"o":"m 403 -22 b 726 225 586 -22 726 65 b 490 443 726 378 618 432 l 368 454 b 243 542 294 460 243 483 b 388 635 243 597 299 635 b 550 524 479 635 535 596 l 711 524 b 390 761 697 675 564 761 b 76 518 201 761 76 660 b 297 314 76 392 175 324 l 424 303 b 561 208 488 297 561 281 b 404 106 561 140 492 106 b 217 231 313 106 239 142 l 51 231 b 403 -22 75 58 226 -22 z m 397 -294 l 471 -83 l 313 -83 l 276 -294 z "},"ß":{"ha":896,"x_min":0,"x_max":0,"o":"m 657 532 b 799 754 746 572 799 649 b 449 1024 799 924 664 1024 b 103 703 250 1024 103 938 l 103 0 l 269 0 l 269 692 b 446 888 269 772 290 888 b 629 732 568 888 629 819 b 474 583 629 644 569 583 l 396 583 l 396 449 l 506 449 b 667 294 604 449 667 386 b 493 136 667 197 601 136 l 396 136 l 396 0 l 508 0 b 838 278 704 0 838 107 b 657 532 838 401 768 492 z "},"t":{"ha":592,"x_min":0,"x_max":0,"o":"m 432 143 b 344 224 365 143 344 147 l 344 603 l 533 603 l 533 739 l 344 739 l 344 935 l 178 935 l 178 739 l 25 739 l 25 603 l 178 603 l 178 203 b 394 0 178 58 228 0 l 550 0 l 550 143 z "},"ť":{"ha":592,"x_min":0,"x_max":0,"o":"m 417 1007 l 407 794 l 532 794 l 565 1007 z m 344 603 l 533 603 l 533 739 l 344 739 l 344 935 l 178 935 l 178 739 l 25 739 l 25 603 l 178 603 l 178 203 b 394 0 178 58 228 0 l 550 0 l 550 143 l 432 143 b 344 224 365 143 344 147 z "},"ţ":{"ha":592,"x_min":0,"x_max":0,"o":"m 550 143 l 432 143 b 344 224 365 143 344 147 l 344 603 l 533 603 l 533 739 l 344 739 l 344 935 l 178 935 l 178 739 l 25 739 l 25 603 l 178 603 l 178 203 b 310 7 178 86 210 26 l 249 -82 l 276 -133 l 311 -133 b 358 -165 347 -133 358 -144 b 296 -194 358 -186 336 -194 b 229 -190 274 -194 257 -193 l 229 -276 b 315 -282 261 -282 288 -282 b 481 -172 433 -282 481 -242 b 354 -74 481 -111 431 -74 l 407 0 l 550 0 z "},"ț":{"ha":592,"x_min":0,"x_max":0,"o":"m 432 143 b 344 224 365 143 344 147 l 344 603 l 533 603 l 533 739 l 344 739 l 344 935 l 178 935 l 178 739 l 25 739 l 25 603 l 178 603 l 178 203 b 394 0 178 58 228 0 l 550 0 l 550 143 z m 354 -294 l 428 -83 l 269 -83 l 233 -294 z "},"u":{"ha":861,"x_min":0,"x_max":0,"o":"m 592 324 b 417 114 592 188 519 114 b 261 286 314 114 261 188 l 261 739 l 94 739 l 94 265 b 372 -22 94 88 203 -22 b 597 93 468 -22 546 17 l 597 0 l 758 0 l 758 739 l 592 739 z "},"ú":{"ha":861,"x_min":0,"x_max":0,"o":"m 490 1086 l 356 865 l 496 865 l 694 1086 z m 592 324 b 417 114 592 188 519 114 b 261 286 314 114 261 188 l 261 739 l 94 739 l 94 265 b 372 -22 94 88 203 -22 b 597 93 468 -22 546 17 l 597 0 l 758 0 l 758 739 l 592 739 z "},"ŭ":{"ha":861,"x_min":0,"x_max":0,"o":"m 431 864 b 667 1076 578 864 664 939 l 531 1076 b 432 975 528 1007 493 975 b 331 1076 371 975 335 1007 l 197 1076 b 431 864 200 939 294 864 z m 592 324 b 417 114 592 188 519 114 b 261 286 314 114 261 188 l 261 739 l 94 739 l 94 265 b 372 -22 94 88 203 -22 b 597 93 468 -22 546 17 l 597 0 l 758 0 l 758 739 l 592 739 z "},"ǔ":{"ha":861,"x_min":0,"x_max":0,"o":"m 693 1086 l 535 1086 l 432 976 l 326 1086 l 169 1086 l 361 865 l 503 865 z m 592 324 b 417 114 592 188 519 114 b 261 286 314 114 261 188 l 261 739 l 94 739 l 94 265 b 372 -22 94 88 203 -22 b 597 93 468 -22 546 17 l 597 0 l 758 0 l 758 739 l 592 739 z "},"û":{"ha":861,"x_min":0,"x_max":0,"o":"m 535 865 l 693 865 l 503 1086 l 361 1086 l 169 865 l 326 865 l 432 975 z m 592 324 b 417 114 592 188 519 114 b 261 286 314 114 261 188 l 261 739 l 94 739 l 94 265 b 372 -22 94 88 203 -22 b 597 93 468 -22 546 17 l 597 0 l 758 0 l 758 739 l 592 739 z "},"ü":{"ha":861,"x_min":0,"x_max":0,"o":"m 260 868 b 358 964 313 868 358 910 b 260 1060 358 1018 315 1060 b 161 964 204 1060 161 1018 b 260 868 161 910 204 868 z m 603 868 b 701 964 656 868 701 910 b 603 1060 701 1018 658 1060 b 504 964 547 1060 504 1018 b 603 868 504 910 547 868 z m 592 324 b 417 114 592 188 519 114 b 261 286 314 114 261 188 l 261 739 l 94 739 l 94 265 b 372 -22 94 88 203 -22 b 597 93 468 -22 546 17 l 597 0 l 758 0 l 758 739 l 592 739 z "},"ụ":{"ha":861,"x_min":0,"x_max":0,"o":"m 592 324 b 417 114 592 188 519 114 b 261 286 314 114 261 188 l 261 739 l 94 739 l 94 265 b 372 -22 94 88 203 -22 b 597 93 468 -22 546 17 l 597 0 l 758 0 l 758 739 l 592 739 z m 432 -111 b 322 -215 369 -111 322 -156 b 432 -319 322 -275 369 -319 b 539 -215 490 -319 539 -275 b 432 -111 539 -156 492 -111 z "},"ù":{"ha":861,"x_min":0,"x_max":0,"o":"m 376 1086 l 172 1086 l 368 865 l 508 865 z m 592 324 b 417 114 592 188 519 114 b 261 286 314 114 261 188 l 261 739 l 94 739 l 94 265 b 372 -22 94 88 203 -22 b 597 93 468 -22 546 17 l 597 0 l 758 0 l 758 739 l 592 739 z "},"ű":{"ha":861,"x_min":0,"x_max":0,"o":"m 333 1086 l 251 865 l 375 865 l 499 1086 z m 604 1086 l 506 865 l 629 865 l 769 1086 z m 592 324 b 417 114 592 188 519 114 b 261 286 314 114 261 188 l 261 739 l 94 739 l 94 265 b 372 -22 94 88 203 -22 b 597 93 468 -22 546 17 l 597 0 l 758 0 l 758 739 l 592 739 z "},"ū":{"ha":861,"x_min":0,"x_max":0,"o":"m 190 1006 l 190 883 l 674 883 l 674 1006 z m 592 324 b 417 114 592 188 519 114 b 261 286 314 114 261 188 l 261 739 l 94 739 l 94 265 b 372 -22 94 88 203 -22 b 597 93 468 -22 546 17 l 597 0 l 758 0 l 758 739 l 592 739 z "},"ų":{"ha":861,"x_min":0,"x_max":0,"o":"m 592 324 b 417 114 592 188 519 114 b 261 286 314 114 261 188 l 261 739 l 94 739 l 94 265 b 372 -22 94 88 203 -22 b 597 93 468 -22 546 17 l 597 4 b 503 -160 539 -43 503 -99 b 651 -283 503 -233 556 -283 b 729 -276 676 -283 704 -282 l 729 -178 l 711 -178 b 642 -129 667 -178 642 -162 b 729 0 642 -82 672 -33 l 758 0 l 758 739 l 592 739 z "},"ů":{"ha":861,"x_min":0,"x_max":0,"o":"m 432 858 b 594 1015 526 858 594 922 b 432 1172 594 1107 526 1172 b 269 1015 338 1172 269 1107 b 432 858 269 922 338 858 z m 432 1088 b 503 1015 474 1088 503 1057 b 432 942 503 972 474 942 b 360 1015 390 942 360 972 b 432 1088 360 1057 390 1088 z m 592 324 b 417 114 592 188 519 114 b 261 286 314 114 261 188 l 261 739 l 94 739 l 94 265 b 372 -22 94 88 203 -22 b 597 93 468 -22 546 17 l 597 0 l 758 0 l 758 739 l 592 739 z "},"ũ":{"ha":861,"x_min":0,"x_max":0,"o":"m 340 960 b 544 868 410 960 422 868 b 711 1069 651 868 711 935 l 583 1069 b 524 988 582 1015 565 988 b 319 1078 453 988 440 1078 b 153 876 213 1078 153 1011 l 281 876 b 340 960 282 932 299 960 z m 592 324 b 417 114 592 188 519 114 b 261 286 314 114 261 188 l 261 739 l 94 739 l 94 265 b 372 -22 94 88 203 -22 b 597 93 468 -22 546 17 l 597 0 l 758 0 l 758 739 l 592 739 z "},"v":{"ha":801,"x_min":0,"x_max":0,"o":"m 403 194 l 196 739 l 21 739 l 321 0 l 483 0 l 781 739 l 607 739 z "},"w":{"ha":1217,"x_min":0,"x_max":0,"o":"m 865 214 l 669 739 l 549 739 l 360 218 l 189 739 l 21 739 l 275 0 l 431 0 l 608 481 l 786 0 l 942 0 l 1196 739 l 1029 739 z "},"ẃ":{"ha":1217,"x_min":0,"x_max":0,"o":"m 667 1086 l 532 865 l 672 865 l 871 1086 z m 865 214 l 669 739 l 549 739 l 360 218 l 189 739 l 21 739 l 275 0 l 431 0 l 608 481 l 786 0 l 942 0 l 1196 739 l 1029 739 z "},"ŵ":{"ha":1217,"x_min":0,"x_max":0,"o":"m 713 865 l 871 865 l 681 1086 l 539 1086 l 347 865 l 504 865 l 610 975 z m 865 214 l 669 739 l 549 739 l 360 218 l 189 739 l 21 739 l 275 0 l 431 0 l 608 481 l 786 0 l 942 0 l 1196 739 l 1029 739 z "},"ẅ":{"ha":1217,"x_min":0,"x_max":0,"o":"m 438 868 b 536 964 490 868 536 910 b 438 1060 536 1018 493 1060 b 339 964 382 1060 339 1018 b 438 868 339 910 382 868 z m 781 868 b 879 964 833 868 879 910 b 781 1060 879 1018 836 1060 b 682 964 725 1060 682 1018 b 781 868 682 910 725 868 z m 865 214 l 669 739 l 549 739 l 360 218 l 189 739 l 21 739 l 275 0 l 431 0 l 608 481 l 786 0 l 942 0 l 1196 739 l 1029 739 z "},"ẁ":{"ha":1217,"x_min":0,"x_max":0,"o":"m 554 1086 l 350 1086 l 546 865 l 686 865 z m 865 214 l 669 739 l 549 739 l 360 218 l 189 739 l 21 739 l 275 0 l 431 0 l 608 481 l 786 0 l 942 0 l 1196 739 l 1029 739 z "},"x":{"ha":779,"x_min":0,"x_max":0,"o":"m 481 379 l 724 739 l 546 739 l 383 494 l 210 739 l 25 739 l 283 379 l 31 0 l 208 0 l 382 264 l 572 0 l 754 0 z "},"y":{"ha":801,"x_min":0,"x_max":0,"o":"m 403 194 l 196 739 l 21 739 l 318 11 l 214 -250 l 381 -250 l 781 739 l 607 739 z "},"ý":{"ha":801,"x_min":0,"x_max":0,"o":"m 458 1086 l 324 865 l 464 865 l 663 1086 z m 403 194 l 196 739 l 21 739 l 318 11 l 214 -250 l 381 -250 l 781 739 l 607 739 z "},"ŷ":{"ha":801,"x_min":0,"x_max":0,"o":"m 504 865 l 663 865 l 472 1086 l 331 1086 l 139 865 l 296 865 l 401 975 z m 403 194 l 196 739 l 21 739 l 318 11 l 214 -250 l 381 -250 l 781 739 l 607 739 z "},"ÿ":{"ha":801,"x_min":0,"x_max":0,"o":"m 229 868 b 328 964 282 868 328 910 b 229 1060 328 1018 285 1060 b 131 964 174 1060 131 1018 b 229 868 131 910 174 868 z m 572 868 b 671 964 625 868 671 910 b 572 1060 671 1018 628 1060 b 474 964 517 1060 474 1018 b 572 868 474 910 517 868 z m 403 194 l 196 739 l 21 739 l 318 11 l 214 -250 l 381 -250 l 781 739 l 607 739 z "},"ỳ":{"ha":801,"x_min":0,"x_max":0,"o":"m 346 1086 l 142 1086 l 338 865 l 478 865 z m 403 194 l 196 739 l 21 739 l 318 11 l 214 -250 l 381 -250 l 781 739 l 607 739 z "},"ȳ":{"ha":801,"x_min":0,"x_max":0,"o":"m 158 1006 l 158 883 l 642 883 l 642 1006 z m 403 194 l 196 739 l 21 739 l 318 11 l 214 -250 l 381 -250 l 781 739 l 607 739 z "},"ỹ":{"ha":801,"x_min":0,"x_max":0,"o":"m 310 960 b 514 868 379 960 392 868 b 681 1069 621 868 681 935 l 553 1069 b 493 988 551 1015 535 988 b 289 1078 422 988 410 1078 b 122 876 182 1078 122 1011 l 250 876 b 310 960 251 932 268 960 z m 403 194 l 196 739 l 21 739 l 318 11 l 214 -250 l 381 -250 l 781 739 l 607 739 z "},"z":{"ha":744,"x_min":0,"x_max":0,"o":"m 668 638 l 668 739 l 78 739 l 78 606 l 456 606 l 63 100 l 63 0 l 682 0 l 682 135 l 275 135 z "},"ź":{"ha":744,"x_min":0,"x_max":0,"o":"m 431 1086 l 296 865 l 436 865 l 635 1086 z m 668 638 l 668 739 l 78 739 l 78 606 l 456 606 l 63 100 l 63 0 l 682 0 l 682 135 l 275 135 z "},"ž":{"ha":744,"x_min":0,"x_max":0,"o":"m 635 1086 l 476 1086 l 374 976 l 268 1086 l 111 1086 l 303 865 l 444 865 z m 668 638 l 668 739 l 78 739 l 78 606 l 456 606 l 63 100 l 63 0 l 682 0 l 682 135 l 275 135 z "},"ż":{"ha":744,"x_min":0,"x_max":0,"o":"m 374 869 b 481 974 432 869 481 914 b 374 1079 481 1035 433 1079 b 264 974 311 1079 264 1035 b 374 869 264 914 311 869 z m 668 638 l 668 739 l 78 739 l 78 606 l 456 606 l 63 100 l 63 0 l 682 0 l 682 135 l 275 135 z "},"ﬁ":{"ha":938,"x_min":0,"x_max":0,"o":"m 751 869 b 860 974 810 869 860 914 b 751 1079 860 1035 813 1079 b 643 974 690 1079 643 1035 b 751 869 643 914 690 869 z m 171 739 l 25 739 l 25 603 l 171 603 l 171 0 l 338 0 l 338 603 l 524 603 l 524 739 l 338 739 l 338 792 b 418 871 338 863 357 871 l 540 871 l 540 1007 l 388 1007 b 171 814 221 1007 171 946 z m 835 0 l 835 739 l 668 739 l 668 0 z "},"ﬂ":{"ha":938,"x_min":0,"x_max":0,"o":"m 171 739 l 25 739 l 25 603 l 171 603 l 171 0 l 338 0 l 338 603 l 524 603 l 524 739 l 338 739 l 338 792 b 418 871 338 863 357 871 l 540 871 l 540 1007 l 388 1007 b 171 814 221 1007 171 946 z m 668 0 l 835 0 l 835 1007 l 668 1007 z "},"ª":{"ha":575,"x_min":0,"x_max":0,"o":"m 522 492 b 514 610 518 522 514 569 l 514 832 b 286 1025 514 951 433 1025 b 53 857 151 1025 65 965 l 179 857 b 286 928 188 893 218 928 b 388 835 351 928 388 892 l 388 822 b 321 813 369 818 351 815 l 214 800 b 36 647 101 788 36 742 b 229 478 36 546 115 478 b 399 560 301 478 363 506 l 406 492 z m 257 574 b 161 650 199 574 161 606 b 233 713 161 700 211 711 l 321 722 b 388 739 347 725 371 729 l 388 699 b 257 574 388 622 332 574 z "},"º":{"ha":615,"x_min":0,"x_max":0,"o":"m 308 475 b 579 750 468 475 579 592 b 308 1025 579 910 468 1025 b 36 750 147 1025 36 908 b 308 475 36 592 147 475 z m 308 581 b 167 750 219 581 167 646 b 308 921 167 857 219 921 b 447 750 396 921 447 856 b 308 581 447 644 396 581 z "},"Δ":{"ha":1025,"x_min":0,"x_max":0,"o":"m 426 1007 l 18 0 l 1007 0 l 597 1007 z m 771 147 l 250 147 l 510 808 z "},"Ω":{"ha":1165,"x_min":0,"x_max":0,"o":"m 914 143 b 1100 519 1026 221 1100 351 b 583 1029 1100 818 878 1029 b 65 519 289 1029 65 818 b 253 143 65 351 139 221 l 61 143 l 61 0 l 493 0 l 493 143 b 244 511 336 199 244 317 b 585 882 244 732 382 882 b 921 511 785 882 921 732 b 674 143 921 317 829 199 l 674 0 l 1106 0 l 1106 143 z "},"μ":{"ha":869,"x_min":0,"x_max":0,"o":"m 600 324 b 425 114 600 188 528 114 b 269 286 322 114 269 188 l 269 739 l 103 739 l 103 -250 l 264 -250 l 264 7 b 381 -22 297 -12 338 -22 b 606 93 476 -22 554 17 l 606 0 l 767 0 l 767 739 l 600 739 z "},"π":{"ha":953,"x_min":0,"x_max":0,"o":"m 911 739 l 25 739 l 25 603 l 160 603 l 160 0 l 326 0 l 326 603 l 608 603 l 608 203 b 825 0 608 58 658 0 l 911 0 l 911 143 l 863 143 b 775 224 796 143 775 147 l 775 603 l 911 603 z "},"₀":{"ha":572,"x_min":0,"x_max":0,"o":"m 286 -187 b 531 104 436 -187 531 -74 b 286 394 531 282 436 394 b 42 104 136 394 42 282 b 286 -187 42 -74 136 -187 z m 286 -81 b 174 104 215 -81 174 -12 b 286 288 174 221 215 288 b 399 104 358 288 399 219 b 286 -81 399 -12 357 -81 z "},"₁":{"ha":379,"x_min":0,"x_max":0,"o":"m 29 265 l 29 136 l 179 238 l 179 -174 l 307 -174 l 307 381 l 193 381 z "},"₂":{"ha":489,"x_min":0,"x_max":0,"o":"m 288 -26 b 447 215 379 53 447 124 b 240 394 447 325 360 394 b 35 210 118 394 46 321 l 153 210 b 243 292 163 263 196 292 b 319 218 296 292 319 254 b 201 53 319 161 263 107 l 40 -92 l 40 -174 l 449 -174 l 449 -76 l 232 -76 z "},"₃":{"ha":503,"x_min":0,"x_max":0,"o":"m 453 297 l 453 381 l 46 381 l 46 282 l 294 282 l 143 135 l 189 63 b 242 71 206 68 228 71 b 333 -7 300 71 333 39 b 250 -87 333 -56 300 -87 b 151 -10 204 -87 165 -60 l 28 -10 b 251 -186 47 -119 125 -186 b 461 -8 382 -186 461 -110 b 300 151 461 78 401 140 z "},"₄":{"ha":529,"x_min":0,"x_max":0,"o":"m 415 17 l 415 381 l 297 381 l 29 13 l 29 -81 l 303 -81 l 303 -174 l 415 -174 l 415 -81 l 500 -81 l 500 17 z m 303 222 l 303 17 l 153 17 z "},"₅":{"ha":531,"x_min":0,"x_max":0,"o":"m 289 193 b 190 174 250 193 218 186 l 207 282 l 465 282 l 465 381 l 108 381 l 65 86 l 161 51 b 267 96 186 79 222 96 b 364 6 329 96 364 57 b 269 -86 364 -49 328 -86 b 168 -15 219 -86 181 -57 l 42 -15 b 271 -185 69 -132 160 -185 b 492 10 403 -185 492 -107 b 289 193 492 121 411 193 z "},"₆":{"ha":540,"x_min":0,"x_max":0,"o":"m 296 200 b 161 147 240 200 194 181 b 286 300 171 244 213 300 b 375 242 328 300 357 279 l 492 242 b 286 394 465 338 397 394 b 42 96 131 394 42 278 b 281 -187 42 -83 129 -187 b 504 6 410 -187 504 -110 b 296 200 504 125 411 200 z m 279 -86 b 178 8 217 -86 178 -47 b 281 103 178 65 219 103 b 379 10 340 103 379 64 b 279 -86 379 -46 342 -86 z "},"₇":{"ha":468,"x_min":0,"x_max":0,"o":"m 28 282 l 300 282 l 75 -174 l 211 -174 l 440 297 l 440 381 l 28 381 z "},"₈":{"ha":528,"x_min":0,"x_max":0,"o":"m 392 115 b 469 240 440 142 469 185 b 264 394 469 333 388 394 b 58 240 140 394 58 335 b 136 115 58 186 86 142 b 39 -22 74 90 39 43 b 264 -186 39 -126 122 -186 b 489 -22 406 -186 489 -126 b 392 115 489 43 454 90 z m 264 301 b 356 231 322 301 356 272 b 264 156 356 185 321 156 b 171 229 207 156 171 183 b 264 301 171 272 207 301 z m 264 -94 b 165 -15 204 -94 165 -62 b 264 67 165 36 204 67 b 363 -15 324 67 363 35 b 264 -94 363 -64 322 -94 z "},"₉":{"ha":540,"x_min":0,"x_max":0,"o":"m 260 394 b 38 201 132 394 38 317 b 244 7 38 82 131 7 b 379 60 300 7 346 26 b 256 -93 369 -37 329 -93 b 167 -35 214 -93 183 -72 l 49 -35 b 254 -187 75 -129 143 -187 b 499 111 410 -187 499 -71 b 260 394 499 290 411 394 z m 261 103 b 160 197 200 103 160 143 b 261 293 160 253 200 293 b 363 199 324 293 363 253 b 261 103 363 142 322 103 z "},"⁰":{"ha":572,"x_min":0,"x_max":0,"o":"m 286 738 b 531 1029 436 738 531 851 b 286 1319 531 1207 436 1319 b 42 1029 136 1319 42 1207 b 286 738 42 851 136 738 z m 286 844 b 174 1029 215 844 174 913 b 286 1213 174 1146 215 1213 b 399 1029 358 1213 399 1144 b 286 844 399 913 357 844 z "},"¹":{"ha":379,"x_min":0,"x_max":0,"o":"m 29 1190 l 29 1061 l 179 1163 l 179 751 l 307 751 l 307 1306 l 193 1306 z "},"²":{"ha":489,"x_min":0,"x_max":0,"o":"m 288 899 b 447 1140 379 978 447 1049 b 240 1319 447 1250 360 1319 b 35 1135 118 1319 46 1246 l 153 1135 b 243 1217 163 1188 196 1217 b 319 1143 296 1217 319 1179 b 201 978 319 1086 263 1032 l 40 833 l 40 751 l 449 751 l 449 849 l 232 849 z "},"³":{"ha":503,"x_min":0,"x_max":0,"o":"m 453 1222 l 453 1306 l 46 1306 l 46 1207 l 294 1207 l 143 1060 l 189 988 b 242 996 206 993 228 996 b 333 918 300 996 333 964 b 250 838 333 869 300 838 b 151 915 204 838 165 865 l 28 915 b 251 739 47 806 125 739 b 461 917 382 739 461 815 b 300 1076 461 1003 401 1065 z "},"⁴":{"ha":529,"x_min":0,"x_max":0,"o":"m 415 942 l 415 1306 l 297 1306 l 29 938 l 29 844 l 303 844 l 303 751 l 415 751 l 415 844 l 500 844 l 500 942 z m 303 1147 l 303 942 l 153 942 z "},"⁵":{"ha":531,"x_min":0,"x_max":0,"o":"m 289 1118 b 190 1099 250 1118 218 1111 l 207 1207 l 465 1207 l 465 1306 l 108 1306 l 65 1011 l 161 976 b 267 1021 186 1004 222 1021 b 364 931 329 1021 364 982 b 269 839 364 876 328 839 b 168 910 219 839 181 868 l 42 910 b 271 740 69 793 160 740 b 492 935 403 740 492 818 b 289 1118 492 1046 411 1118 z "},"⁶":{"ha":540,"x_min":0,"x_max":0,"o":"m 296 1125 b 161 1072 240 1125 194 1106 b 286 1225 171 1169 213 1225 b 375 1167 328 1225 357 1204 l 492 1167 b 286 1319 465 1263 397 1319 b 42 1021 131 1319 42 1203 b 281 738 42 842 129 738 b 504 931 410 738 504 815 b 296 1125 504 1050 411 1125 z m 279 839 b 178 933 217 839 178 878 b 281 1028 178 990 219 1028 b 379 935 340 1028 379 989 b 279 839 379 879 342 839 z "},"⁷":{"ha":468,"x_min":0,"x_max":0,"o":"m 28 1207 l 300 1207 l 75 751 l 211 751 l 440 1222 l 440 1306 l 28 1306 z "},"⁸":{"ha":528,"x_min":0,"x_max":0,"o":"m 392 1040 b 469 1165 440 1067 469 1110 b 264 1319 469 1258 388 1319 b 58 1165 140 1319 58 1260 b 136 1040 58 1111 86 1067 b 39 903 74 1015 39 968 b 264 739 39 799 122 739 b 489 903 406 739 489 799 b 392 1040 489 968 454 1015 z m 264 1226 b 356 1156 322 1226 356 1197 b 264 1081 356 1110 321 1081 b 171 1154 207 1081 171 1108 b 264 1226 171 1197 207 1226 z m 264 831 b 165 910 204 831 165 863 b 264 992 165 961 204 992 b 363 910 324 992 363 960 b 264 831 363 861 322 831 z "},"⁹":{"ha":540,"x_min":0,"x_max":0,"o":"m 260 1319 b 38 1126 132 1319 38 1242 b 244 932 38 1007 131 932 b 379 985 300 932 346 951 b 256 832 369 888 329 832 b 167 890 214 832 183 853 l 49 890 b 254 738 75 796 143 738 b 499 1036 410 738 499 854 b 260 1319 499 1215 411 1319 z m 261 1028 b 160 1122 200 1028 160 1068 b 261 1218 160 1178 200 1218 b 363 1124 324 1218 363 1178 b 261 1028 363 1067 322 1028 z "},"⁄":{"ha":194,"x_min":0,"x_max":0,"o":"m -169 0 l 506 1007 l 364 1007 l -311 0 z "},"½":{"ha":1097,"x_min":0,"x_max":0,"o":"m 307 453 l 307 1007 l 193 1007 l 29 892 l 29 763 l 179 864 l 179 453 z m 88 0 l 231 0 l 906 1007 l 763 1007 z m 896 147 b 1054 389 986 226 1054 297 b 849 568 1054 499 967 568 b 643 383 726 568 653 494 l 761 383 b 850 465 771 436 804 465 b 928 392 903 465 928 428 b 810 226 928 335 869 281 l 649 82 l 649 0 l 1057 0 l 1057 97 l 839 97 z "},"¼":{"ha":1053,"x_min":0,"x_max":0,"o":"m 307 453 l 307 1007 l 193 1007 l 29 892 l 29 763 l 179 864 l 179 453 z m 88 0 l 231 0 l 906 1007 l 763 1007 z m 940 190 l 940 554 l 822 554 l 554 186 l 554 93 l 828 93 l 828 0 l 940 0 l 940 93 l 1024 93 l 1024 190 z m 828 397 l 828 190 l 678 190 z "},"¾":{"ha":1185,"x_min":0,"x_max":0,"o":"m 461 618 b 300 778 461 704 401 767 l 453 924 l 453 1007 l 46 1007 l 46 908 l 294 908 l 143 761 l 189 689 b 242 697 206 694 228 697 b 333 619 300 697 333 665 b 250 539 333 571 300 539 b 151 617 204 539 165 567 l 28 617 b 251 440 47 507 125 440 b 461 618 382 440 461 517 z m 219 0 l 363 0 l 1038 1007 l 894 1007 z m 1072 190 l 1072 554 l 954 554 l 686 186 l 686 93 l 960 93 l 960 0 l 1072 0 l 1072 93 l 1156 93 l 1156 190 z m 960 397 l 960 190 l 810 190 z "},".":{"ha":385,"x_min":0,"x_max":0,"o":"m 193 -10 b 301 94 251 -10 301 35 b 193 200 301 156 254 200 b 85 94 132 200 85 156 b 193 -10 85 35 132 -10 z "},",":{"ha":372,"x_min":0,"x_max":0,"o":"m 171 -181 l 289 179 l 119 179 l 49 -181 z "},":":{"ha":385,"x_min":0,"x_max":0,"o":"m 193 536 b 301 640 251 536 301 581 b 193 746 301 701 254 746 b 85 640 132 746 85 701 b 193 536 85 581 132 536 z m 193 -10 b 301 94 251 -10 301 35 b 193 200 301 156 254 200 b 85 94 132 200 85 156 b 193 -10 85 35 132 -10 z "},";":{"ha":392,"x_min":0,"x_max":0,"o":"m 200 536 b 307 640 258 536 307 581 b 200 746 307 701 260 746 b 90 640 138 746 90 701 b 200 536 90 581 138 536 z m 175 -181 l 292 179 l 119 179 l 49 -181 z "},"…":{"ha":1017,"x_min":0,"x_max":0,"o":"m 193 -10 b 301 94 251 -10 301 35 b 193 200 301 156 254 200 b 85 94 132 200 85 156 b 193 -10 85 35 132 -10 z m 510 -10 b 618 94 568 -10 618 35 b 510 200 618 156 571 200 b 401 94 449 200 401 156 b 510 -10 401 35 449 -10 z m 825 -10 b 933 94 883 -10 933 35 b 825 200 933 156 886 200 b 717 94 764 200 717 156 b 825 -10 717 35 764 -10 z "},"!":{"ha":413,"x_min":0,"x_max":0,"o":"m 275 322 l 294 1007 l 119 1007 l 139 322 z m 207 -10 b 315 94 265 -10 315 35 b 207 200 315 156 268 200 b 99 94 146 200 99 156 b 207 -10 99 35 146 -10 z "},"¡":{"ha":413,"x_min":0,"x_max":0,"o":"m 206 767 b 99 663 147 767 99 722 b 206 557 99 601 146 557 b 315 663 268 557 315 601 b 206 767 315 722 268 767 z m 139 435 l 119 -250 l 293 -250 l 275 435 z "},"?":{"ha":794,"x_min":0,"x_max":0,"o":"m 464 322 l 464 340 b 735 743 464 506 735 499 b 397 1029 735 915 601 1029 b 46 699 189 1029 47 908 l 211 699 b 392 882 215 814 285 882 b 563 731 496 882 563 821 b 308 342 563 560 308 568 l 308 322 z m 386 -10 b 494 94 444 -10 494 35 b 386 200 494 156 447 200 b 278 94 325 200 278 156 b 386 -10 278 35 325 -10 z "},"¿":{"ha":794,"x_min":0,"x_max":0,"o":"m 410 764 b 300 660 350 764 300 719 b 408 556 300 600 349 556 b 518 660 471 556 518 600 b 410 764 518 721 471 764 z m 331 432 l 331 414 b 60 13 331 250 60 257 b 399 -274 60 -161 193 -274 b 749 56 606 -274 749 -153 l 585 56 b 403 -128 581 -60 510 -128 b 232 24 299 -128 232 -65 b 486 414 232 194 486 186 l 486 432 z "},"·":{"ha":328,"x_min":0,"x_max":0,"o":"m 165 385 b 272 489 224 385 272 429 b 165 593 272 549 225 593 b 56 489 103 593 56 549 b 165 385 56 429 103 385 z "},"•":{"ha":547,"x_min":0,"x_max":0,"o":"m 274 293 b 467 486 385 293 467 375 b 274 679 467 597 385 679 b 81 486 163 679 81 597 b 274 293 81 375 163 293 z "},"*":{"ha":654,"x_min":0,"x_max":0,"o":"m 326 671 l 411 488 l 517 550 l 397 710 l 599 696 l 599 817 l 397 801 l 517 963 l 411 1025 l 326 840 l 242 1025 l 138 961 l 257 801 l 56 817 l 56 696 l 257 710 l 138 551 l 243 488 z "},"#":{"ha":1128,"x_min":0,"x_max":0,"o":"m 1072 747 l 853 747 l 910 1007 l 782 1007 l 725 747 l 510 747 l 567 1007 l 439 1007 l 382 747 l 160 747 l 135 629 l 357 629 l 303 382 l 81 382 l 56 267 l 278 267 l 219 0 l 346 0 l 404 267 l 621 267 l 563 0 l 690 0 l 749 267 l 968 267 l 993 382 l 774 382 l 828 629 l 1047 629 z m 429 382 l 483 629 l 700 629 l 646 382 z "},"/":{"ha":868,"x_min":0,"x_max":0,"o":"m 229 0 l 825 1007 l 638 1007 l 42 0 z "},"\\":{"ha":868,"x_min":0,"x_max":0,"o":"m 231 1007 l 43 1007 l 639 0 l 826 0 z "},"(":{"ha":496,"x_min":0,"x_max":0,"o":"m 475 -250 b 238 454 315 -18 238 207 b 475 1156 238 699 315 926 l 289 1156 b 61 454 135 939 61 700 b 289 -250 61 206 135 -31 z "},")":{"ha":496,"x_min":0,"x_max":0,"o":"m 207 -250 b 435 454 361 -31 435 206 b 207 1156 435 700 361 939 l 21 1156 b 258 454 181 926 258 699 b 21 -250 258 207 181 -18 z "},"{":{"ha":549,"x_min":0,"x_max":0,"o":"m 514 -250 l 514 -103 l 450 -103 b 325 44 351 -103 325 -61 l 325 199 b 225 453 325 343 315 413 b 325 708 315 494 325 563 l 325 860 b 450 1007 325 965 351 1007 l 514 1007 l 514 1154 l 404 1154 b 158 876 163 1154 158 979 l 158 694 b 50 529 158 568 149 529 l 21 529 l 21 376 l 50 376 b 158 213 144 376 158 338 l 158 29 b 404 -250 158 -75 163 -250 z "},"}":{"ha":549,"x_min":0,"x_max":0,"o":"m 144 -250 b 390 29 388 -250 390 -75 l 390 213 b 499 376 390 338 404 376 l 528 376 l 528 529 l 499 529 b 390 694 400 529 390 568 l 390 876 b 144 1154 390 979 388 1154 l 35 1154 l 35 1007 l 99 1007 b 224 860 197 1007 224 965 l 224 708 b 324 453 224 563 233 494 b 224 199 233 413 224 343 l 224 44 b 99 -103 224 -61 197 -103 l 35 -103 l 35 -250 z "},"[":{"ha":499,"x_min":0,"x_max":0,"o":"m 464 -250 l 464 -101 l 282 -101 l 282 1007 l 464 1007 l 464 1156 l 115 1156 l 115 -250 z "},"]":{"ha":499,"x_min":0,"x_max":0,"o":"m 383 1156 l 35 1156 l 35 1007 l 217 1007 l 217 -101 l 35 -101 l 35 -250 l 383 -250 z "},"-":{"ha":625,"x_min":0,"x_max":0,"o":"m 540 357 l 540 501 l 83 501 l 83 357 z "},"­":{"ha":625,"x_min":0,"x_max":0,"o":"m 540 357 l 540 501 l 83 501 l 83 357 z "},"–":{"ha":889,"x_min":0,"x_max":0,"o":"m 806 357 l 806 501 l 83 501 l 83 357 z "},"—":{"ha":1172,"x_min":0,"x_max":0,"o":"m 1103 357 l 1103 501 l 69 501 l 69 357 z "},"_":{"ha":639,"x_min":0,"x_max":0,"o":"m 625 -207 l 625 -69 l 14 -69 l 14 -207 z "},"‚":{"ha":335,"x_min":0,"x_max":0,"o":"m 196 -176 l 254 175 l 101 175 l 81 -176 z "},"„":{"ha":571,"x_min":0,"x_max":0,"o":"m 196 -176 l 254 175 l 101 175 l 81 -176 z m 432 -176 l 490 175 l 338 175 l 317 -176 z "},"“":{"ha":571,"x_min":0,"x_max":0,"o":"m 233 654 l 254 1007 l 139 1007 l 81 654 z m 469 654 l 490 1007 l 375 1007 l 317 654 z "},"”":{"ha":571,"x_min":0,"x_max":0,"o":"m 196 654 l 254 1007 l 101 1007 l 81 654 z m 432 654 l 490 1007 l 338 1007 l 317 654 z "},"‘":{"ha":335,"x_min":0,"x_max":0,"o":"m 233 654 l 254 1007 l 139 1007 l 81 654 z "},"’":{"ha":335,"x_min":0,"x_max":0,"o":"m 196 654 l 254 1007 l 101 1007 l 81 654 z "},"«":{"ha":786,"x_min":0,"x_max":0,"o":"m 254 668 l 56 372 l 254 76 l 411 76 l 225 372 l 411 668 z m 558 668 l 360 372 l 558 76 l 715 76 l 529 372 l 715 668 z "},"»":{"ha":786,"x_min":0,"x_max":0,"o":"m 71 668 l 257 372 l 71 76 l 228 76 l 426 372 l 228 668 z m 375 668 l 561 372 l 375 76 l 532 76 l 731 372 l 532 668 z "},"‹":{"ha":482,"x_min":0,"x_max":0,"o":"m 254 668 l 56 372 l 254 76 l 411 76 l 225 372 l 411 668 z "},"›":{"ha":482,"x_min":0,"x_max":0,"o":"m 71 668 l 257 372 l 71 76 l 228 76 l 426 372 l 228 668 z "},"\"":{"ha":529,"x_min":0,"x_max":0,"o":"m 208 642 l 224 1007 l 71 1007 l 85 642 z m 444 642 l 460 1007 l 307 1007 l 321 642 z "},"'":{"ha":293,"x_min":0,"x_max":0,"o":"m 208 642 l 224 1007 l 71 1007 l 85 642 z "}," ":{"ha":308,"x_min":0,"x_max":0,"o":""}," ":{"ha":1389,"x_min":0,"x_max":0,"o":""}," ":{"ha":1389,"x_min":0,"x_max":0,"o":""}," ":{"ha":694,"x_min":0,"x_max":0,"o":""}," ":{"ha":694,"x_min":0,"x_max":0,"o":""}," ":{"ha":947,"x_min":0,"x_max":0,"o":""}," ":{"ha":347,"x_min":0,"x_max":0,"o":""}," ":{"ha":97,"x_min":0,"x_max":0,"o":""}," ":{"ha":56,"x_min":0,"x_max":0,"o":""}," ":{"ha":385,"x_min":0,"x_max":0,"o":""}," ":{"ha":231,"x_min":0,"x_max":0,"o":""}," ":{"ha":279,"x_min":0,"x_max":0,"o":""}," ":{"ha":174,"x_min":0,"x_max":0,"o":""}," ":{"ha":463,"x_min":0,"x_max":0,"o":""},"​":{"ha":0,"x_min":0,"x_max":0,"o":""},"¢":{"ha":839,"x_min":0,"x_max":0,"o":"m 490 619 b 626 499 558 606 603 563 l 786 499 b 490 758 753 642 640 740 l 490 892 l 378 892 l 378 757 b 56 369 185 729 56 576 b 378 -18 56 163 185 10 l 378 -153 l 490 -153 l 490 -19 b 786 238 640 -1 753 97 l 626 238 b 490 121 601 176 557 135 z m 228 369 b 378 615 228 501 282 590 l 378 124 b 228 369 282 149 228 238 z "},"¤":{"ha":836,"x_min":0,"x_max":0,"o":"m 242 228 b 419 172 292 192 353 172 b 594 226 486 172 546 192 l 697 125 l 781 210 l 681 310 b 738 488 718 363 738 421 b 681 667 738 556 717 617 l 781 765 l 696 849 l 597 750 b 419 807 546 786 486 807 b 240 749 353 807 293 785 l 142 850 l 57 767 l 158 665 b 103 488 124 615 103 556 b 158 311 103 422 122 363 l 56 210 l 139 125 z m 419 294 b 225 488 311 294 225 382 b 419 685 225 597 311 685 b 617 488 529 685 617 599 b 419 294 617 382 528 294 z "},"$":{"ha":908,"x_min":0,"x_max":0,"o":"m 849 300 b 565 575 849 450 760 551 l 510 582 l 510 883 b 665 735 594 865 647 810 l 832 735 b 510 1025 803 907 682 1007 l 510 1160 l 397 1160 l 397 1025 b 74 714 201 1006 74 883 b 350 440 74 553 193 460 l 397 435 l 397 125 b 218 296 313 142 242 193 l 46 296 b 397 -18 79 96 217 -1 l 397 -153 l 510 -153 l 510 -18 b 849 300 718 -1 849 117 z m 249 729 b 397 885 249 808 306 868 l 397 594 b 249 729 343 603 249 631 z m 510 421 b 674 279 615 407 674 360 b 510 121 674 188 604 133 z "},"€":{"ha":1043,"x_min":0,"x_max":0,"o":"m 571 125 b 311 333 447 125 354 206 l 592 333 l 617 450 l 289 450 b 286 503 288 467 286 485 b 289 556 286 521 288 539 l 639 556 l 663 672 l 311 672 b 571 882 353 799 443 882 b 818 692 690 882 778 810 l 986 692 b 569 1029 939 896 782 1029 b 140 672 357 1029 196 885 l 28 672 l 28 556 l 121 556 b 119 503 119 539 119 521 b 121 450 119 485 119 467 l 28 450 l 28 333 l 140 333 b 571 -22 196 119 358 -22 b 986 313 782 -22 938 110 l 817 313 b 571 125 775 197 689 125 z "},"ƒ":{"ha":783,"x_min":0,"x_max":0,"o":"m 758 868 l 758 1007 l 596 1007 b 368 835 465 1007 390 956 l 340 671 l 168 671 l 168 535 l 317 535 l 219 -29 b 113 -111 208 -85 178 -111 l -12 -111 l -12 -250 l 153 -250 b 376 -78 281 -250 356 -199 l 483 535 l 718 535 l 718 671 l 507 671 l 526 786 b 633 868 536 842 568 868 z "},"£":{"ha":878,"x_min":0,"x_max":0,"o":"m 339 147 b 417 332 392 194 417 258 b 407 403 417 357 414 381 l 619 403 l 619 551 l 346 551 b 294 722 318 606 294 661 b 463 878 294 825 356 878 b 642 731 564 878 618 822 l 807 731 b 457 1025 783 915 668 1025 b 117 738 249 1025 117 922 b 167 551 117 661 140 604 l 49 551 l 49 403 l 235 403 b 244 329 240 381 244 356 b 47 144 244 228 172 144 l 47 0 l 818 0 l 818 147 z "},"¥":{"ha":924,"x_min":0,"x_max":0,"o":"m 718 1007 l 468 567 l 214 1007 l 18 1007 l 308 517 l 108 517 l 108 386 l 375 386 l 375 276 l 108 276 l 108 146 l 375 146 l 375 0 l 549 0 l 549 146 l 815 146 l 815 276 l 549 276 l 549 386 l 815 386 l 815 517 l 615 517 l 906 1007 z "},"+":{"ha":831,"x_min":0,"x_max":0,"o":"m 489 590 l 489 810 l 344 810 l 344 590 l 118 590 l 118 453 l 344 453 l 344 232 l 489 232 l 489 453 l 714 453 l 714 590 z "},"−":{"ha":831,"x_min":0,"x_max":0,"o":"m 714 453 l 714 590 l 118 590 l 118 453 z "},"×":{"ha":831,"x_min":0,"x_max":0,"o":"m 611 810 l 417 615 l 222 810 l 124 715 l 319 519 l 124 324 l 222 229 l 417 424 l 611 229 l 707 324 l 511 519 l 707 715 z "},"÷":{"ha":831,"x_min":0,"x_max":0,"o":"m 417 692 b 518 790 472 692 518 733 b 417 889 518 846 474 889 b 314 790 358 889 314 846 b 417 692 314 733 358 692 z m 714 453 l 714 589 l 118 589 l 118 453 z m 417 153 b 518 251 472 153 518 194 b 417 350 518 307 474 350 b 314 251 358 350 314 307 b 417 153 314 194 358 153 z "},"=":{"ha":831,"x_min":0,"x_max":0,"o":"m 714 585 l 714 721 l 118 721 l 118 585 z m 714 315 l 714 451 l 118 451 l 118 315 z "},"≠":{"ha":831,"x_min":0,"x_max":0,"o":"m 714 722 l 592 722 l 660 850 l 525 850 l 457 722 l 118 722 l 118 586 l 385 586 l 313 451 l 118 451 l 118 314 l 240 314 l 171 185 l 306 185 l 375 314 l 714 314 l 714 451 l 447 451 l 519 586 l 714 586 z "},">":{"ha":831,"x_min":0,"x_max":0,"o":"m 121 726 l 563 522 l 121 317 l 121 154 l 721 440 l 721 604 l 121 886 z "},"<":{"ha":832,"x_min":0,"x_max":0,"o":"m 110 604 l 110 440 l 711 154 l 711 317 l 269 522 l 711 726 l 711 886 z "},"≥":{"ha":831,"x_min":0,"x_max":0,"o":"m 121 768 l 558 583 l 121 399 l 121 236 l 721 503 l 721 665 l 121 928 z m 721 0 l 721 136 l 121 136 l 121 0 z "},"≤":{"ha":832,"x_min":0,"x_max":0,"o":"m 110 665 l 110 503 l 711 236 l 711 399 l 274 583 l 711 768 l 711 928 z m 711 0 l 711 136 l 110 136 l 110 0 z "},"±":{"ha":831,"x_min":0,"x_max":0,"o":"m 488 828 l 343 828 l 343 625 l 118 625 l 118 489 l 343 489 l 343 282 l 488 282 l 488 489 l 714 489 l 714 625 l 488 625 z m 714 0 l 714 136 l 118 136 l 118 0 z "},"≈":{"ha":831,"x_min":0,"x_max":0,"o":"m 539 549 b 721 771 654 549 721 622 l 594 771 b 528 676 593 708 574 676 b 292 779 447 676 426 779 b 110 557 176 779 110 706 l 236 557 b 303 651 239 619 258 651 b 539 549 385 651 406 549 z m 539 257 b 721 481 654 257 721 331 l 594 481 b 528 385 593 417 574 385 b 292 489 447 385 426 489 b 110 265 176 489 110 414 l 236 265 b 303 361 239 328 258 361 b 539 257 385 361 406 257 z "},"¬":{"ha":831,"x_min":0,"x_max":0,"o":"m 714 244 l 714 603 l 118 603 l 118 465 l 569 465 l 569 244 z "},"~":{"ha":722,"x_min":0,"x_max":0,"o":"m 485 400 b 667 622 600 400 667 474 l 540 622 b 474 528 539 560 518 528 b 238 631 392 528 371 631 b 56 407 122 631 56 557 l 182 407 b 249 503 183 471 203 503 b 485 400 331 503 350 400 z "},"^":{"ha":607,"x_min":0,"x_max":0,"o":"m 382 1007 l 226 1007 l 56 633 l 200 633 l 304 856 l 408 633 l 551 633 z "},"∅":{"ha":722,"x_min":0,"x_max":0,"o":"m 660 721 l 604 776 l 547 719 b 361 783 496 760 432 783 b 56 478 192 783 56 647 b 119 292 56 407 79 343 l 63 235 l 118 179 l 175 236 b 361 172 226 196 290 172 b 667 478 531 172 667 308 b 603 664 667 549 643 613 z m 149 479 b 363 694 149 597 243 694 b 483 656 407 694 449 679 l 185 357 b 149 479 161 392 149 433 z m 363 260 b 239 300 317 260 274 275 l 538 599 b 572 479 560 564 572 524 b 363 260 572 357 478 260 z "},"∞":{"ha":943,"x_min":0,"x_max":0,"o":"m 683 726 b 465 606 583 726 518 669 b 257 726 417 672 344 726 b 56 514 135 726 56 642 b 260 313 56 390 132 313 b 478 435 360 313 425 369 b 686 313 526 365 599 313 b 888 525 808 313 888 397 b 683 726 888 649 810 726 z m 265 422 b 174 518 210 422 174 463 b 268 617 174 579 210 617 b 403 525 326 617 368 579 b 265 422 361 468 321 422 z m 675 422 b 539 515 614 422 571 465 b 676 617 582 571 622 617 b 769 518 732 617 769 578 b 675 422 769 460 735 422 z "},"∫":{"ha":783,"x_min":0,"x_max":0,"o":"m 153 -250 b 376 -78 281 -250 356 -199 l 526 786 b 633 868 536 842 568 868 l 758 868 l 758 1007 l 596 1007 b 368 835 465 1007 390 956 l 219 -29 b 113 -111 208 -85 178 -111 l -12 -111 l -12 -250 z "},"∏":{"ha":1153,"x_min":0,"x_max":0,"o":"m 42 1007 l 42 860 l 206 860 l 206 0 l 379 0 l 379 860 l 774 860 l 774 0 l 949 0 l 949 860 l 1111 860 l 1111 1007 z "},"∑":{"ha":849,"x_min":0,"x_max":0,"o":"m 554 504 l 269 871 l 758 871 l 758 1007 l 75 1007 l 75 878 l 364 506 l 63 131 l 63 0 l 765 0 l 765 136 l 260 136 z "},"√":{"ha":822,"x_min":0,"x_max":0,"o":"m 543 1007 l 310 140 l 185 479 l 21 479 l 215 0 l 419 0 l 660 871 l 818 871 l 818 1007 z "},"µ":{"ha":869,"x_min":0,"x_max":0,"o":"m 600 324 b 425 114 600 188 528 114 b 269 286 322 114 269 188 l 269 739 l 103 739 l 103 -250 l 264 -250 l 264 7 b 381 -22 297 -12 338 -22 b 606 93 476 -22 554 17 l 606 0 l 767 0 l 767 739 l 600 739 z "},"∂":{"ha":906,"x_min":0,"x_max":0,"o":"m 475 1029 b 114 754 292 1029 172 926 l 274 754 b 465 889 314 840 378 889 b 676 574 606 889 676 775 l 676 558 b 429 671 624 628 539 671 b 54 289 226 671 54 518 b 393 -22 54 100 192 -22 b 838 572 690 -22 838 242 b 475 1029 838 854 710 1029 z m 407 118 b 225 306 293 118 225 196 b 442 536 225 440 317 536 b 628 354 556 536 628 465 b 407 118 628 219 538 118 z "},"%":{"ha":1256,"x_min":0,"x_max":0,"o":"m 286 467 b 531 743 436 467 531 576 b 286 1019 531 914 436 1019 b 42 743 136 1019 42 913 b 286 467 42 576 136 467 z m 361 0 l 1036 1007 l 893 1007 l 218 0 z m 286 574 b 174 743 215 574 174 636 b 286 913 174 851 215 913 b 399 743 358 913 399 850 b 286 574 399 636 357 574 z m 969 -14 b 1214 264 1119 -14 1214 96 b 969 540 1214 433 1119 540 b 725 264 819 540 725 433 b 969 -14 725 96 819 -14 z m 969 93 b 857 264 899 93 857 156 b 969 433 857 371 899 433 b 1082 264 1042 433 1082 371 b 969 93 1082 156 1040 93 z "},"‰":{"ha":1828,"x_min":0,"x_max":0,"o":"m 286 467 b 531 743 436 467 531 576 b 286 1019 531 914 436 1019 b 42 743 136 1019 42 913 b 286 467 42 576 136 467 z m 361 0 l 1036 1007 l 893 1007 l 218 0 z m 286 574 b 174 743 215 574 174 636 b 286 913 174 851 215 913 b 399 743 358 913 399 850 b 286 574 399 636 357 574 z m 969 -14 b 1214 264 1119 -14 1214 96 b 969 540 1214 433 1119 540 b 725 264 819 540 725 433 b 969 -14 725 96 819 -14 z m 1542 -14 b 1785 264 1692 -14 1785 96 b 1542 540 1785 433 1692 540 b 1297 264 1392 540 1297 433 b 1542 -14 1297 96 1392 -14 z m 969 93 b 857 264 899 93 857 156 b 969 433 857 371 899 433 b 1082 264 1042 433 1082 371 b 969 93 1082 156 1040 93 z m 1542 93 b 1429 264 1471 93 1429 156 b 1542 433 1429 371 1471 433 b 1654 264 1613 433 1654 371 b 1542 93 1654 156 1613 93 z "},"↑":{"ha":1107,"x_min":0,"x_max":0,"o":"m 554 1028 l 118 593 l 222 488 l 474 742 l 474 0 l 633 0 l 633 743 l 885 488 l 989 593 z "},"↗":{"ha":1019,"x_min":0,"x_max":0,"o":"m 285 758 l 642 760 l 118 236 l 231 124 l 756 649 l 754 290 l 901 292 l 901 907 l 286 908 z "},"→":{"ha":1264,"x_min":0,"x_max":0,"o":"m 606 846 l 860 594 l 118 594 l 118 435 l 858 435 l 606 183 l 711 79 l 1146 515 l 711 951 z "},"↘":{"ha":1021,"x_min":0,"x_max":0,"o":"m 756 383 l 231 908 l 118 794 l 642 271 l 285 272 l 286 124 l 901 124 l 903 740 l 753 740 z "},"↓":{"ha":1107,"x_min":0,"x_max":0,"o":"m 633 265 l 633 1007 l 474 1007 l 474 264 l 222 519 l 118 414 l 553 -21 l 989 414 l 885 519 z "},"↙":{"ha":1019,"x_min":0,"x_max":0,"o":"m 789 908 l 264 382 l 267 740 l 118 739 l 118 124 l 733 124 l 735 272 l 378 271 l 901 794 z "},"←":{"ha":1264,"x_min":0,"x_max":0,"o":"m 404 596 l 658 847 l 553 951 l 118 515 l 553 79 l 658 185 l 403 436 l 1146 436 l 1146 596 z "},"↖":{"ha":1021,"x_min":0,"x_max":0,"o":"m 378 760 l 736 758 l 735 907 l 119 907 l 118 292 l 267 290 l 265 647 l 789 124 l 903 236 z "},"↔":{"ha":1286,"x_min":0,"x_max":0,"o":"m 731 804 l 932 583 l 356 583 l 557 804 l 464 894 l 118 515 l 464 133 l 557 225 l 356 444 l 932 444 l 731 225 l 822 133 l 1168 515 l 822 894 z "},"↕":{"ha":996,"x_min":0,"x_max":0,"o":"m 567 793 l 789 592 l 878 682 l 497 1029 l 118 682 l 208 592 l 429 793 l 429 214 l 208 417 l 118 325 l 497 -22 l 878 325 l 789 417 l 567 214 z "},"◊":{"ha":700,"x_min":0,"x_max":0,"o":"m 293 1007 l 56 504 l 292 0 l 408 0 l 644 504 l 410 1007 z m 176 501 l 349 901 l 526 506 l 353 107 z "},"@":{"ha":1424,"x_min":0,"x_max":0,"o":"m 918 681 l 910 593 b 701 700 872 653 810 700 b 371 328 508 700 371 538 b 643 24 371 149 475 24 b 893 140 760 24 835 69 b 1054 32 914 72 974 32 b 1364 458 1231 32 1364 218 b 740 1029 1364 804 1083 1029 b 61 364 371 1029 61 764 b 743 -274 61 -19 342 -274 b 1129 -196 886 -274 1013 -242 l 1129 -79 b 753 -167 1007 -133 885 -167 b 182 364 417 -167 182 44 b 743 921 182 692 429 921 b 1244 457 1021 921 1244 743 b 1069 140 1244 294 1174 140 b 1017 251 1013 140 1011 190 l 1056 681 z m 685 143 b 519 331 581 143 519 214 b 719 579 519 475 592 579 b 886 393 824 579 886 511 b 685 143 886 239 807 143 z "},"&":{"ha":1024,"x_min":0,"x_max":0,"o":"m 819 176 b 946 500 888 261 933 371 l 779 500 b 715 289 774 419 751 349 l 501 519 b 736 800 646 603 736 671 b 443 1029 736 936 621 1029 b 149 797 265 1029 149 931 b 271 557 149 713 203 636 b 47 253 135 481 47 393 b 413 -21 47 94 197 -21 b 713 74 522 -21 626 13 l 779 0 l 982 0 z m 444 899 b 568 792 519 899 568 856 b 411 619 568 719 497 671 b 315 789 351 689 315 740 b 444 899 315 851 365 899 z m 421 115 b 222 260 304 115 222 169 b 365 451 222 336 269 392 l 617 178 b 421 115 561 138 494 115 z "},"¶":{"ha":981,"x_min":0,"x_max":0,"o":"m 474 1007 b 60 657 228 1007 60 869 b 415 324 60 424 256 324 l 415 -250 l 542 -250 l 542 867 l 696 867 l 696 -250 l 822 -250 l 822 867 l 939 867 l 939 1007 z "},"§":{"ha":851,"x_min":0,"x_max":0,"o":"m 792 344 b 554 596 792 513 658 561 l 396 647 b 271 778 357 660 271 692 b 414 904 271 854 328 904 b 581 767 508 904 564 849 l 728 767 b 417 1028 703 933 590 1028 b 113 761 233 1028 113 921 b 157 617 113 700 131 653 b 47 414 88 569 47 500 b 260 171 47 265 158 203 l 435 117 b 575 -21 501 94 575 68 b 421 -150 575 -110 510 -150 b 225 10 339 -150 250 -112 l 71 10 b 415 -274 103 -193 240 -274 b 732 -6 614 -274 732 -169 b 686 142 732 58 714 106 b 792 344 753 188 792 257 z m 344 303 b 206 429 290 322 206 349 b 264 531 206 474 229 510 b 299 518 276 525 288 521 l 488 461 b 635 329 561 436 635 410 b 576 225 635 283 613 249 b 503 251 549 238 522 246 z "},"©":{"ha":1172,"x_min":0,"x_max":0,"o":"m 588 -22 b 1113 504 889 -22 1113 204 b 588 1029 1113 804 888 1029 b 61 504 286 1029 61 804 b 588 -22 61 204 286 -22 z m 588 68 b 157 504 342 68 157 254 b 588 938 157 753 342 938 b 1017 504 832 938 1017 753 b 588 68 1017 254 832 68 z m 593 221 b 842 408 718 221 815 294 l 719 408 b 593 326 699 358 657 326 b 446 503 500 326 446 392 b 593 679 446 611 500 679 b 719 596 657 679 700 647 l 842 596 b 593 785 815 708 719 785 b 315 503 428 785 315 667 b 593 221 315 339 428 221 z "},"®":{"ha":717,"x_min":0,"x_max":0,"o":"m 358 1024 b 56 718 189 1024 56 894 b 358 413 56 542 189 413 b 661 718 528 413 661 542 b 358 1024 661 894 526 1024 z m 358 474 b 119 719 222 474 119 578 b 358 964 119 861 224 964 b 597 719 493 964 597 861 b 358 474 597 578 493 474 z m 488 781 b 375 879 488 839 444 879 l 246 879 l 246 560 l 314 560 l 314 679 l 347 679 l 417 560 l 492 560 l 418 685 b 488 781 460 697 488 731 z m 375 821 b 419 781 400 821 419 804 b 375 735 419 754 400 735 l 314 735 l 314 821 z "},"™":{"ha":1174,"x_min":0,"x_max":0,"o":"m 181 906 l 181 504 l 301 504 l 301 906 l 450 906 l 450 1007 l 32 1007 l 32 906 z m 810 733 l 651 1007 l 539 1007 l 539 503 l 653 503 l 653 806 l 775 593 l 844 593 l 961 803 l 961 503 l 1076 503 l 1076 1007 l 963 1007 z "},"°":{"ha":594,"x_min":0,"x_max":0,"o":"m 297 535 b 539 776 444 535 539 629 b 297 1018 539 924 444 1018 b 56 776 150 1018 56 924 b 297 535 56 629 150 535 z m 297 640 b 167 776 218 640 167 694 b 297 914 167 860 218 914 b 428 776 376 914 428 860 b 297 640 428 694 376 640 z "},"|":{"ha":390,"x_min":0,"x_max":0,"o":"m 275 -250 l 275 1007 l 115 1007 l 115 -250 z "},"¦":{"ha":390,"x_min":0,"x_max":0,"o":"m 275 457 l 275 1007 l 115 1007 l 115 457 z m 275 -250 l 275 300 l 115 300 l 115 -250 z "},"†":{"ha":685,"x_min":0,"x_max":0,"o":"m 422 764 l 422 1007 l 263 1007 l 263 764 l 69 764 l 69 628 l 263 628 l 263 -250 l 422 -250 l 422 628 l 615 628 l 615 764 z "},"‡":{"ha":685,"x_min":0,"x_max":0,"o":"m 615 765 l 422 765 l 422 1007 l 263 1007 l 263 765 l 69 765 l 69 628 l 263 628 l 263 129 l 69 129 l 69 -8 l 263 -8 l 263 -250 l 422 -250 l 422 -8 l 615 -8 l 615 129 l 422 129 l 422 628 l 615 628 z "},"℮":{"ha":1228,"x_min":0,"x_max":0,"o":"m 614 0 b 1072 203 824 0 939 57 l 968 203 b 614 40 888 111 756 40 b 263 219 403 40 263 168 l 263 469 b 285 496 263 494 271 496 l 1172 496 b 614 1021 1158 835 944 1021 b 56 510 288 1021 56 815 b 614 0 56 199 288 0 z m 285 528 b 263 540 268 528 263 532 l 263 807 b 613 985 263 851 413 985 b 965 796 771 985 965 876 l 965 551 b 940 528 965 533 961 528 z "},"№":{"ha":1656,"x_min":0,"x_max":0,"o":"m 1350 1025 b 1078 750 1189 1025 1078 908 b 1350 475 1078 592 1189 475 b 1621 750 1510 475 1621 592 b 1350 1025 1621 910 1510 1025 z m 264 1007 l 115 1007 l 115 0 l 276 0 l 276 722 l 778 0 l 926 0 l 926 1007 l 765 1007 l 765 288 z m 1350 581 b 1208 750 1261 581 1208 646 b 1350 921 1208 857 1261 921 b 1489 750 1438 921 1489 856 b 1350 581 1489 644 1438 581 z "},"ʼ":{"ha":293,"x_min":0,"x_max":0,"o":"m 208 642 l 224 1007 l 71 1007 l 85 642 z "},"̈":{"ha":0,"x_min":0,"x_max":0,"o":"m -497 868 b -399 964 -444 868 -399 910 b -497 1060 -399 1018 -442 1060 b -596 964 -553 1060 -596 1018 b -497 868 -596 910 -553 868 z m -154 868 b -56 964 -101 868 -56 910 b -154 1060 -56 1018 -99 1060 b -253 964 -210 1060 -253 1018 b -154 868 -253 910 -210 868 z "},"̇":{"ha":0,"x_min":0,"x_max":0,"o":"m -162 869 b -56 974 -104 869 -56 914 b -162 1079 -56 1035 -103 1079 b -272 974 -225 1079 -272 1035 b -162 869 -272 914 -225 869 z "},"̀":{"ha":0,"x_min":0,"x_max":0,"o":"m -56 865 l -187 1086 l -392 1086 l -196 865 z "},"́":{"ha":0,"x_min":0,"x_max":0,"o":"m -254 865 l -56 1086 l -260 1086 l -394 865 z "},"̋":{"ha":0,"x_min":0,"x_max":0,"o":"m -450 865 l -326 1086 l -492 1086 l -574 865 z m -196 865 l -56 1086 l -221 1086 l -319 865 z "},"̂":{"ha":0,"x_min":0,"x_max":0,"o":"m -246 1086 l -387 1086 l -579 865 l -422 865 l -317 975 l -214 865 l -56 865 z "},"̌":{"ha":0,"x_min":0,"x_max":0,"o":"m -317 976 l -422 1086 l -579 1086 l -387 865 l -246 865 l -56 1086 l -214 1086 z "},"̆":{"ha":0,"x_min":0,"x_max":0,"o":"m -292 864 b -56 1076 -144 864 -58 939 l -192 1076 b -290 975 -194 1007 -229 975 b -392 1076 -351 975 -387 1007 l -525 1076 b -292 864 -522 939 -428 864 z "},"̊":{"ha":0,"x_min":0,"x_max":0,"o":"m -218 858 b -56 1015 -124 858 -56 922 b -218 1172 -56 1107 -124 1172 b -381 1015 -312 1172 -381 1107 b -218 858 -381 922 -312 858 z m -218 942 b -290 1015 -260 942 -290 972 b -218 1088 -290 1057 -260 1088 b -147 1015 -176 1088 -147 1057 b -218 942 -147 972 -176 942 z "},"̃":{"ha":0,"x_min":0,"x_max":0,"o":"m -222 868 b -56 1069 -115 868 -56 935 l -183 1069 b -243 988 -185 1015 -201 988 b -447 1078 -314 988 -326 1078 b -614 876 -554 1078 -614 1011 l -486 876 b -426 960 -485 932 -468 960 b -222 868 -357 960 -344 868 z "},"̄":{"ha":0,"x_min":0,"x_max":0,"o":"m -56 883 l -56 1006 l -539 1006 l -539 883 z "},"̒":{"ha":0,"x_min":0,"x_max":0,"o":"m -92 865 l -56 1086 l -174 1086 l -247 865 z "},"̣":{"ha":0,"x_min":0,"x_max":0,"o":"m -162 -319 b -56 -215 -104 -319 -56 -275 b -162 -111 -56 -156 -103 -111 b -272 -215 -225 -111 -272 -156 b -162 -319 -272 -275 -225 -319 z "},"̦":{"ha":0,"x_min":0,"x_max":0,"o":"m -129 -294 l -56 -83 l -214 -83 l -250 -294 z "},"̧":{"ha":0,"x_min":0,"x_max":0,"o":"m -129 0 l -197 50 l -287 -82 l -260 -133 l -225 -133 b -178 -165 -189 -133 -178 -144 b -240 -194 -178 -186 -200 -194 b -307 -190 -262 -194 -279 -193 l -307 -276 b -221 -282 -275 -282 -249 -282 b -56 -172 -103 -282 -56 -242 b -182 -74 -56 -111 -106 -74 z "},"̨":{"ha":0,"x_min":0,"x_max":0,"o":"m -133 -283 b -56 -276 -108 -283 -81 -282 l -56 -178 l -74 -178 b -143 -129 -118 -178 -143 -162 b -56 0 -143 -82 -112 -33 l -137 39 b -282 -160 -224 -14 -282 -83 b -133 -283 -282 -233 -229 -283 z "},"¨":{"ha":651,"x_min":0,"x_max":0,"o":"m 154 868 b 253 964 207 868 253 910 b 154 1060 253 1018 210 1060 b 56 964 99 1060 56 1018 b 154 868 56 910 99 868 z m 497 868 b 596 964 550 868 596 910 b 497 1060 596 1018 553 1060 b 399 964 442 1060 399 1018 b 497 868 399 910 442 868 z "},"˙":{"ha":328,"x_min":0,"x_max":0,"o":"m 165 869 b 272 974 224 869 272 914 b 165 1079 272 1035 225 1079 b 56 974 103 1079 56 1035 b 165 869 56 914 103 869 z "},"`":{"ha":447,"x_min":0,"x_max":0,"o":"m 392 865 l 260 1086 l 56 1086 l 251 865 z "},"´":{"ha":450,"x_min":0,"x_max":0,"o":"m 196 865 l 394 1086 l 190 1086 l 56 865 z "},"˝":{"ha":629,"x_min":0,"x_max":0,"o":"m 179 865 l 303 1086 l 138 1086 l 56 865 z m 433 865 l 574 1086 l 408 1086 l 310 865 z "},"ˆ":{"ha":635,"x_min":0,"x_max":0,"o":"m 389 1086 l 247 1086 l 56 865 l 213 865 l 318 975 l 421 865 l 579 865 z "},"ˇ":{"ha":635,"x_min":0,"x_max":0,"o":"m 318 976 l 213 1086 l 56 1086 l 247 865 l 389 865 l 579 1086 l 421 1086 z "},"˘":{"ha":581,"x_min":0,"x_max":0,"o":"m 289 864 b 525 1076 436 864 522 939 l 389 1076 b 290 975 386 1007 351 975 b 189 1076 229 975 193 1007 l 56 1076 b 289 864 58 939 153 864 z "},"˚":{"ha":436,"x_min":0,"x_max":0,"o":"m 218 858 b 381 1015 313 858 381 922 b 218 1172 381 1107 313 1172 b 56 1015 124 1172 56 1107 b 218 858 56 922 124 858 z m 218 942 b 146 1015 176 942 146 972 b 218 1088 146 1057 176 1088 b 289 1015 260 1088 289 1057 b 218 942 289 972 260 942 z "},"˜":{"ha":669,"x_min":0,"x_max":0,"o":"m 447 868 b 614 1069 554 868 614 935 l 486 1069 b 426 988 485 1015 468 988 b 222 1078 356 988 343 1078 b 56 876 115 1078 56 1011 l 183 876 b 243 960 185 932 201 960 b 447 868 313 960 325 868 z "},"¯":{"ha":594,"x_min":0,"x_max":0,"o":"m 539 883 l 539 1006 l 56 1006 l 56 883 z "},"¸":{"ha":363,"x_min":0,"x_max":0,"o":"m 233 0 l 165 50 l 75 -82 l 103 -133 l 138 -133 b 185 -165 174 -133 185 -144 b 122 -194 185 -186 163 -194 b 56 -190 100 -194 83 -193 l 56 -276 b 142 -282 88 -282 114 -282 b 307 -172 260 -282 307 -242 b 181 -74 307 -111 257 -74 z "},"˛":{"ha":338,"x_min":0,"x_max":0,"o":"m 204 -283 b 282 -276 229 -283 257 -282 l 282 -178 l 264 -178 b 194 -129 219 -178 194 -162 b 282 0 194 -82 225 -33 l 200 39 b 56 -160 114 -14 56 -83 b 204 -283 56 -233 108 -283 z "}}}
